<svg xmlns="http://www.w3.org/2000/svg"  viewBox="0 0 100 100" width="100px" height="100px" baseProfile="basic"><path fill="#1d1d1b" d="M87.744,67.49l-3.842-1.392c-0.477-0.172-0.833-0.529-1.006-1.005l-1.392-3.843 c-1.158-3.196-4.103-5.261-7.502-5.261c-0.69,0-1.353,0.106-1.994,0.268l3.404-1.26c4.005-1.482,6.593-5.199,6.593-9.47 s-2.588-7.987-6.593-9.47l-9.149-3.385c-3.666-1.357-6.546-4.237-7.901-7.902l-3.386-9.149c-1.482-4.004-5.198-6.592-9.47-6.593 c-4.27,0-7.986,2.587-9.471,6.593l-3.386,9.15c-1.355,3.665-4.235,6.544-7.901,7.901L15.6,36.058 c-4.005,1.482-6.593,5.199-6.593,9.47s2.588,7.987,6.593,9.47l9.149,3.386c3.666,1.356,6.546,4.236,7.901,7.902l3.387,9.148 c1.481,4.006,5.199,6.594,9.471,6.594h0.001c4.27-0.001,7.985-2.589,9.468-6.593l0.046-0.126c0.125,3.263,2.142,6.065,5.241,7.188 l3.838,1.389c0.478,0.173,0.835,0.531,1.008,1.007l1.392,3.843c1.158,3.196,4.103,5.261,7.502,5.261s6.345-2.065,7.503-5.263 l1.391-3.84c0.173-0.477,0.53-0.834,1.007-1.007l3.841-1.391c3.197-1.158,5.263-4.103,5.263-7.503S90.941,68.648,87.744,67.49z M74.003,75.177c-0.061-0.062-0.122-0.123-0.184-0.184c0.062-0.061,0.123-0.122,0.184-0.184c0.061,0.062,0.122,0.123,0.184,0.184 C74.125,75.054,74.063,75.115,74.003,75.177z" opacity=".35"/><path fill="#f2f2f2" d="M85.744,65.49l-3.842-1.392c-0.477-0.172-0.833-0.529-1.006-1.005l-1.392-3.843 c-1.158-3.196-4.103-5.261-7.502-5.261c-0.69,0-1.353,0.106-1.994,0.268l3.404-1.26c4.005-1.482,6.593-5.199,6.593-9.47 s-2.588-7.987-6.593-9.47l-9.149-3.385c-3.666-1.357-6.546-4.237-7.901-7.902l-3.386-9.149c-1.482-4.004-5.198-6.592-9.47-6.593 c-4.27,0-7.986,2.587-9.471,6.593l-3.386,9.15c-1.355,3.665-4.235,6.544-7.901,7.901L13.6,34.058 c-4.005,1.482-6.593,5.199-6.593,9.47s2.588,7.987,6.593,9.47l9.149,3.386c3.666,1.356,6.546,4.236,7.901,7.902l3.387,9.148 c1.481,4.006,5.199,6.594,9.471,6.594h0.001c4.27-0.001,7.985-2.589,9.468-6.593l0.046-0.126c0.125,3.263,2.142,6.065,5.241,7.188 l3.838,1.389c0.478,0.173,0.835,0.531,1.008,1.007l1.392,3.843c1.158,3.196,4.103,5.261,7.502,5.261s6.345-2.065,7.503-5.263 l1.391-3.84c0.173-0.477,0.53-0.834,1.007-1.007l3.841-1.391c3.197-1.158,5.263-4.103,5.263-7.503S88.941,66.648,85.744,65.49z"/><path fill="none" stroke="#40396e" stroke-miterlimit="10" stroke-width="3" d="M62.008,36.769l9.15,3.386 c3.132,1.159,3.132,5.588,0,6.747l-9.15,3.386c-5.44,2.013-9.729,6.302-11.742,11.742l-3.386,9.15 c-1.159,3.132-5.588,3.132-6.747,0l-3.386-9.15c-2.013-5.44-6.302-9.729-11.742-11.742l-9.15-3.386 c-3.132-1.159-3.132-5.588,0-6.747l9.15-3.386c5.44-2.013,9.729-6.302,11.742-11.742l3.386-9.15c1.159-3.132,5.588-3.132,6.747,0 l3.386,9.15C52.279,30.466,56.568,34.756,62.008,36.769z M74.785,65.306l-1.391-3.84c-0.471-1.302-2.312-1.302-2.783,0l-1.391,3.84 c-0.826,2.282-2.623,4.079-4.905,4.905l-3.84,1.391c-1.302,0.471-1.302,2.312,0,2.783l3.84,1.391 c2.282,0.826,4.079,2.623,4.905,4.905l1.391,3.84c0.471,1.302,2.312,1.302,2.783,0l1.391-3.84c0.826-2.282,2.623-4.079,4.905-4.905 l3.84-1.391c1.302-0.471,1.302-2.312,0-2.783l-3.84-1.391C77.408,69.384,75.611,67.588,74.785,65.306z"/><path fill="#40396e" d="M84.041,70.191l-3.84-1.391c-1.869-0.676-3.329-2.136-4.006-4.005l-1.391-3.841 c-0.433-1.193-1.532-1.965-2.802-1.965s-2.369,0.771-2.802,1.965l-1.391,3.84c-0.677,1.869-2.137,3.329-4.006,4.005l-3.84,1.391 c-1.194,0.433-1.966,1.532-1.966,2.802c0,1.27,0.771,2.369,1.966,2.802l3.84,1.39c1.869,0.677,3.329,2.137,4.006,4.006l1.391,3.841 c0.433,1.193,1.532,1.965,2.802,1.965s2.369-0.771,2.802-1.965l1.391-3.84c0.677-1.869,2.137-3.329,4.006-4.005l3.84-1.391 c1.194-0.433,1.966-1.532,1.966-2.802C86.007,71.723,85.235,70.624,84.041,70.191z M79.18,74.365 c-2.709,0.981-4.824,3.097-5.805,5.805l-1.354,3.84l-1.391-3.84c-0.98-2.708-3.096-4.824-5.805-5.805l-3.84-1.353l3.84-1.39 c2.708-0.981,4.824-3.096,5.805-5.805l1.354-3.84l1.391,3.84c0.98,2.708,3.097,4.824,5.805,5.804l3.84,1.354L79.18,74.365z"/><path fill="#40396e" d="M71.678,48.308c2.021-0.748,3.328-2.625,3.328-4.78s-1.307-4.032-3.328-4.78l-9.149-3.386 c-5.036-1.864-8.993-5.821-10.855-10.856l-3.386-9.149c-0.748-2.021-2.624-3.328-4.779-3.329c-0.001,0-0.001,0-0.001,0 c-2.156,0-4.032,1.307-4.781,3.329l-3.386,9.149c-1.862,5.036-5.819,8.992-10.855,10.856l-9.149,3.386 c-2.021,0.748-3.328,2.625-3.328,4.78s1.307,4.032,3.328,4.78l9.149,3.386c5.036,1.863,8.993,5.82,10.855,10.856l3.387,9.149 c0.748,2.022,2.625,3.329,4.781,3.329c2.155,0,4.031-1.307,4.779-3.329l3.386-9.149c1.862-5.036,5.819-8.993,10.855-10.856 L71.678,48.308z M48.858,61.509l-3.386,9.149c-0.47,1.271-1.623,1.369-1.966,1.37c-0.343,0-1.497-0.099-1.967-1.37l-3.386-9.149 c-2.168-5.858-6.771-10.461-12.629-12.628l-9.149-3.386c-1.271-0.47-1.369-1.624-1.369-1.967c0-0.342,0.099-1.497,1.369-1.967 l9.149-3.386c5.858-2.168,10.461-6.771,12.629-12.628l3.385-9.149c0.471-1.271,1.625-1.37,1.968-1.37 c0.343,0,1.496,0.099,1.966,1.37l3.386,9.149c2.168,5.857,6.771,10.46,12.629,12.628l9.149,3.386 c1.271,0.47,1.369,1.625,1.369,1.967c0,0.343-0.099,1.497-1.369,1.967l-9.149,3.386C55.629,51.048,51.026,55.651,48.858,61.509z"/><path fill="#f4665c" d="M46.983,20.478l-1.51-4.081c-0.47-1.271-1.623-1.369-1.966-1.37c-0.343,0-1.497,0.099-1.968,1.37 l-2.4,6.488l-0.985,2.662c-0.429,1.16-0.958,2.269-1.569,3.322c3.472-2.346,7.487-3.943,11.812-4.569L46.983,20.478z"/><path fill="#f4665c" d="M22.878,39.155l-6.502,2.406c-1.271,0.47-1.369,1.625-1.369,1.967 c0,0.343,0.099,1.497,1.369,1.967l4.097,1.516l3.823,1.415c0.623-4.331,2.218-8.351,4.564-11.827 c-1.057,0.615-2.169,1.146-3.335,1.577L22.878,39.155z"/><path fill="#bd7bc8" d="M28.86,36.598c-2.346,3.476-3.941,7.497-4.564,11.827l1.23,0.455 c0.898,0.332,1.763,0.728,2.597,1.171c1.151-11.547,10.353-20.76,21.897-21.926c-0.438-0.829-0.831-1.687-1.161-2.578 l-0.462-1.247c-4.325,0.627-8.34,2.223-11.812,4.569C34.724,32.073,32.063,34.735,28.86,36.598z"/><path fill="#9aa2e6" d="M32,52.5C32,41.178,41.178,32,52.5,32c0.053,0,0.104,0.007,0.156,0.008 c-1.014-1.187-1.899-2.488-2.637-3.883c-11.544,1.166-20.745,10.378-21.897,21.926c1.397,0.741,2.699,1.629,3.887,2.646 C32.009,52.631,32,52.567,32,52.5z"/><path fill="#70bfff" d="M70.637,41.561l-1.058-0.392l-8.091-2.994c-3.467-1.283-6.488-3.424-8.831-6.167 C52.604,32.007,52.553,32,52.5,32C41.178,32,32,41.178,32,52.5c0,0.067,0.009,0.131,0.01,0.197 c2.733,2.34,4.865,5.355,6.144,8.812l2.978,8.047l0.408,1.102c0.47,1.271,1.624,1.37,1.967,1.37c0.237,0,0.859-0.057,1.377-0.506 c0.231-0.201,0.444-0.471,0.589-0.864l3.386-9.149c2.168-5.858,6.771-10.461,12.629-12.628l9.149-3.386 c0.406-0.15,0.683-0.373,0.884-0.614c0.43-0.513,0.485-1.12,0.485-1.353C72.006,43.186,71.907,42.031,70.637,41.561z"/><g><path fill="#f4665c" d="M79.18,71.621c-0.111-0.04-0.215-0.094-0.324-0.138c-1.266-0.511-2.394-1.267-3.323-2.225 c-2.035,2.79-4.564,5.195-7.457,7.091c0.985,0.905,1.775,2.011,2.318,3.263c0.08,0.185,0.168,0.366,0.237,0.558l1.391,3.84 l1.354-3.84c0.98-2.708,3.096-4.824,5.805-5.805l3.84-1.391L79.18,71.621z"/><path fill="#bd7bc8" d="M73.257,65.492c-2.264,3.604-5.436,6.581-9.197,8.603l0.766,0.27 c1.224,0.443,2.318,1.128,3.249,1.985c2.893-1.896,5.421-4.302,7.457-7.091c-0.941-0.97-1.684-2.135-2.157-3.442L73.257,65.492z"/><path fill="#9aa2e6" d="M73.257,65.492l-1.273-3.516l-1.354,3.84c-0.98,2.708-3.097,4.824-5.805,5.805l-3.84,1.39 l3.074,1.083C67.822,72.073,70.994,69.096,73.257,65.492z"/></g></svg>