<?xml version="1.0" encoding="UTF-8"?>
<svg version="1.1" xmlns="http://www.w3.org/2000/svg" width="782" height="184">
<path d="M0 0 C3.1697693 3.30561655 6.3397712 6.73742354 8.640625 10.7109375 C8.145625 12.1959375 8.145625 12.1959375 7.640625 13.7109375 C5.2063653 14.79151132 2.91434733 15.6577189 0.390625 16.4609375 C-0.27839844 16.69425781 -0.94742188 16.92757812 -1.63671875 17.16796875 C-5.55383113 18.453151 -8.43841798 19.15878205 -12.359375 17.7109375 C-13.9921875 16.44140625 -13.9921875 16.44140625 -15.484375 14.8984375 C-21.92431906 9.11363926 -30.0487649 6.9622666 -38.59765625 7.328125 C-46.7403498 8.45681519 -54.58632551 11.75461659 -60.359375 17.7109375 C-66.49728856 26.51218512 -67.43657297 35.17718424 -66.359375 45.7109375 C-63.57432309 54.47390441 -59.07896526 60.39190519 -51.21875 64.953125 C-43.18366575 68.81102969 -33.98555393 69.09345453 -25.38671875 66.98046875 C-17.70430932 64.14156934 -13.13388624 59.48544874 -7.359375 53.7109375 C-1.749375 55.6909375 3.860625 57.6709375 9.640625 59.7109375 C7.40242952 68.66371941 0.98356462 75.39402238 -6.359375 80.7109375 C-20.80298872 89.1927992 -34.98497004 91.42987015 -51.359375 87.7109375 C-64.29276839 83.70142954 -75.39349117 75.48656812 -82.12109375 63.59765625 C-89.13896141 49.13711054 -90.62180135 34.50820672 -85.68359375 19.03515625 C-80.20784564 5.2892517 -70.50523263 -3.88597681 -57.359375 -10.2890625 C-37.98000237 -17.91236038 -15.47971289 -14.20226086 0 0 Z " fill="#3B28EE" transform="translate(298.359375,55.2890625)"/>
<path d="M0 0 C0.62777344 0.37253906 1.25554688 0.74507813 1.90234375 1.12890625 C3.72370016 2.29028881 5.4673055 3.4673055 7 5 C7.66 2.69 8.32 0.38 9 -2 C12.14581423 -2.02888514 15.29159469 -2.04675923 18.4375 -2.0625 C19.78424805 -2.07506836 19.78424805 -2.07506836 21.15820312 -2.08789062 C22.01220703 -2.09111328 22.86621094 -2.09433594 23.74609375 -2.09765625 C24.53685303 -2.10289307 25.3276123 -2.10812988 26.14233398 -2.11352539 C28 -2 28 -2 29 -1 C29.09896135 0.741539 29.12799121 2.48709745 29.12939453 4.23144531 C29.13254669 5.3506134 29.13569885 6.46978149 29.13894653 7.62286377 C29.13591019 9.45696808 29.13591019 9.45696808 29.1328125 11.328125 C29.13376923 12.5832489 29.13472595 13.8383728 29.13571167 15.13153076 C29.13639436 17.80158879 29.13503263 20.47155637 29.13037109 23.14160156 C29.12585327 25.85907178 29.12576131 28.57647526 29.13037109 31.29394531 C29.13661224 35.22202513 29.13577957 39.15004235 29.1328125 43.078125 C29.13483673 44.27657043 29.13686096 45.47501587 29.13894653 46.70977783 C29.11766035 54.52282634 28.67984451 62.21588159 28 70 C21.4 70 14.8 70 8 70 C7.67 68.02 7.34 66.04 7 64 C5.9275 64.763125 4.855 65.52625 3.75 66.3125 C-4.935124 71.64547088 -13.62844225 72.7909508 -23.59765625 70.984375 C-32.46352981 68.41927725 -39.50879935 63.06967342 -44 55 C-49.56294194 43.42549176 -50.41276534 32.37394662 -47.05859375 19.984375 C-45.39224431 15.28662232 -43.10715158 10.91206828 -40 7 C-39.34 7 -38.68 7 -38 7 C-38 6.34 -38 5.68 -38 5 C-27.21221083 -3.66292161 -12.4005838 -7.36505262 0 0 Z M-23.875 19.25 C-28.34993799 25.04109623 -29.63994345 29.89515461 -29.41015625 37.1484375 C-28.62011988 42.64107132 -26.54365547 47.71614782 -22.35546875 51.4765625 C-17.23269294 54.69130669 -11.85756448 55.54877015 -6 54.375 C-0.36653886 52.73418608 3.75712135 49.98860583 6.875 45 C9.53595245 37.90412681 10.03181135 31.02509596 7.109375 23.92578125 C4.49509963 19.38762014 0.58967009 16.69945484 -4.125 14.625 C-11.39651443 13.04423599 -17.99815018 14.65072623 -23.875 19.25 Z " fill="#3A27EE" transform="translate(705,73)"/>
<path d="M0 0 C0.66 -1.98 1.32 -3.96 2 -6 C8.27 -6 14.54 -6 21 -6 C22.44957456 -3.10085089 22.11932924 -0.585717 22.11352539 2.65283203 C22.11367142 3.33587402 22.11381744 4.01891602 22.1139679 4.72265625 C22.11327023 6.9844071 22.10548465 9.246076 22.09765625 11.5078125 C22.09579155 13.07437088 22.09436789 14.64092984 22.09336853 16.20748901 C22.08954743 20.33389898 22.0797206 24.46027384 22.06866455 28.58666992 C22.0584417 32.79605637 22.05386903 37.00544847 22.04882812 41.21484375 C22.03809798 49.47658042 22.02050446 57.7382818 22 66 C15.4 66 8.8 66 2 66 C1.67 64.02 1.34 62.04 1 60 C0.23816406 60.50660156 0.23816406 60.50660156 -0.5390625 61.0234375 C-1.22742188 61.46945313 -1.91578125 61.91546875 -2.625 62.375 C-3.29789062 62.81585938 -3.97078125 63.25671875 -4.6640625 63.7109375 C-12.83418113 68.21953139 -22.94511804 68.26711437 -31.94921875 66.3828125 C-40.96237242 63.18505311 -47.18324613 57.17794803 -51.5 48.75 C-56.22725553 38.61266314 -56.99611828 25.64377037 -53.4375 14.9375 C-49.54479271 6.06321625 -43.6331404 -0.54465682 -35 -5 C-22.30084299 -9.83287757 -10.71443621 -8.57154897 0 0 Z M-29.875 15.25 C-35.19748193 22.13791779 -36.00319531 28.4272401 -35 37 C-33.51748312 42.36529919 -30.69198824 46.12630804 -25.98046875 49.08984375 C-20.71474272 51.50979279 -15.75741653 51.46684465 -10.25 49.875 C-4.35763858 47.61660364 -0.77619554 43.59138258 2 38 C2.47397888 34.39571872 2.47397888 34.39571872 2.375 30.5625 C2.38273437 29.28503906 2.39046875 28.00757812 2.3984375 26.69140625 C1.81193326 21.25761701 0.08767833 18.08767833 -3.75 14.25 C-12.26546926 8.35467512 -21.83805061 8.96021352 -29.875 15.25 Z " fill="#3B28EF" transform="translate(423,77)"/>
<path d="M0 0 C6.27 0 12.54 0 19 0 C22.33444121 6.35627855 25.23973708 12.81753642 28 19.4375 C32.20712312 31.55053753 32.20712312 31.55053753 39 42 C40.52383913 38.52214264 42.04350063 35.04247363 43.5625 31.5625 C44.01705566 30.52456299 44.47161133 29.48662598 44.93994141 28.41723633 C47.05896219 23.55694263 49.1479603 18.69500996 51.08203125 13.7578125 C51.54210571 12.59076782 51.54210571 12.59076782 52.01147461 11.40014648 C52.57495289 9.95632301 53.12711299 8.5080162 53.66625977 7.05493164 C54.68330865 4.45783049 55.53735492 2.39701403 57.6796875 0.55859375 C61.19460074 -0.28758907 64.66174329 -0.20741579 68.25 -0.125 C68.99507812 -0.11597656 69.74015625 -0.10695313 70.5078125 -0.09765625 C72.33868059 -0.07418358 74.16938238 -0.03831525 76 0 C75.40509367 4.3786867 74.31811836 8.13836472 72.67431641 12.23535156 C72.18935699 13.45232727 71.70439758 14.66930298 71.20474243 15.92315674 C70.67054235 17.24572422 70.13614335 18.56821138 69.6015625 19.890625 C69.04596174 21.2768968 68.49082568 22.66335491 67.93612671 24.04998779 C66.76792328 26.96663139 65.59574003 29.88163119 64.42041016 32.79541016 C62.94805406 36.44576354 61.48288561 40.09894149 60.02043533 43.75327301 C52.88050355 61.58959937 45.56247855 79.33824998 38 97 C31.07 97 24.14 97 17 97 C17.73347656 95.26492187 18.46695313 93.52984375 19.22265625 91.7421875 C20.17004537 89.45344546 21.11661742 87.16436507 22.0625 84.875 C22.54783203 83.73289062 23.03316406 82.59078125 23.53320312 81.4140625 C23.98759766 80.30546875 24.44199219 79.196875 24.91015625 78.0546875 C25.33433838 77.03874512 25.75852051 76.02280273 26.19555664 74.97607422 C27.86305182 68.80710117 25.20794493 63.61738811 22.7890625 58.015625 C22.46464676 57.25012329 22.14023102 56.48462158 21.8059845 55.69592285 C21.11102767 54.05853389 20.41306924 52.42241618 19.71237183 50.78747559 C18.61854216 48.23493008 17.5329946 45.67900247 16.44946289 43.12207031 C13.41675001 35.973161 10.36347502 28.83321466 7.28607178 21.70343018 C6.48658038 19.84976142 5.69025057 17.99473005 4.89404297 16.13964844 C3.94069105 13.92101988 2.98034241 11.7053816 2.01220703 9.49316406 C1.59438965 8.52088867 1.17657227 7.54861328 0.74609375 6.546875 C0.38185303 5.70995117 0.0176123 4.87302734 -0.35766602 4.01074219 C-1 2 -1 2 0 0 Z " fill="#3A28F0" transform="translate(560,71)"/>
<path d="M0 0 C0.02690844 2.62506802 0.04679404 5.24986173 0.0625 7.875 C0.07087891 8.62136719 0.07925781 9.36773437 0.08789062 10.13671875 C0.11328125 15.7734375 0.11328125 15.7734375 -1 18 C-2.11375 18.103125 -3.2275 18.20625 -4.375 18.3125 C-8.05719711 18.62690737 -8.05719711 18.62690737 -9.875 21.125 C-11.16538055 24.42263917 -11.65530435 27.48410441 -12 31 C-7.38 31 -2.76 31 2 31 C2 36.28 2 41.56 2 47 C-1.09244792 47.22786458 -4.18489583 47.45572917 -7.27734375 47.68359375 C-9.91109903 47.70418084 -9.91109903 47.70418084 -11 49 C-11.12299166 50.68709347 -11.17785258 52.37920903 -11.20532227 54.07055664 C-11.22526749 55.15160172 -11.24521271 56.23264679 -11.26576233 57.34645081 C-11.29083107 59.110485 -11.29083107 59.110485 -11.31640625 60.91015625 C-11.33718735 62.10732773 -11.35796844 63.30449921 -11.37937927 64.53794861 C-11.44500279 68.37940487 -11.50381903 72.22093201 -11.5625 76.0625 C-11.60567305 78.65951267 -11.64928693 81.25651806 -11.69335938 83.85351562 C-11.8006972 90.2356036 -11.90192818 96.61776318 -12 103 C-18.27 103 -24.54 103 -31 103 C-31.33 84.85 -31.66 66.7 -32 48 C-34.97 47.67 -37.94 47.34 -41 47 C-41.19389096 44.5211787 -41.38040123 42.04219069 -41.5625 39.5625 C-41.61857422 38.85544922 -41.67464844 38.14839844 -41.73242188 37.41992188 C-41.86190993 35.61572163 -41.93521608 33.80768048 -42 32 C-41.505 31.505 -41.505 31.505 -41 31 C-39.47480724 31.08937803 -37.95318071 31.24537146 -36.4375 31.4375 C-35.61121094 31.53933594 -34.78492188 31.64117187 -33.93359375 31.74609375 C-33.29550781 31.82988281 -32.65742188 31.91367188 -32 32 C-31.96261719 30.78183594 -31.92523438 29.56367187 -31.88671875 28.30859375 C-31.82101883 26.6848671 -31.75457291 25.06117051 -31.6875 23.4375 C-31.66494141 22.63763672 -31.64238281 21.83777344 -31.61914062 21.01367188 C-31.31198579 14.17249611 -30.1913158 9.1913158 -25.1875 4.1875 C-20.12215295 0.71128144 -15.38406955 -0.25734234 -9.3125 -0.6875 C-8.19488281 -0.77386719 -7.07726562 -0.86023437 -5.92578125 -0.94921875 C-3 -1 -3 -1 0 0 Z " fill="#3B28EF" transform="translate(496,40)"/>
<path d="M0 0 C0.22705078 2.06298828 0.22705078 2.06298828 0.1953125 4.5703125 C0.18886719 5.46621094 0.18242188 6.36210938 0.17578125 7.28515625 C0.15902344 8.22230469 0.14226563 9.15945312 0.125 10.125 C0.11597656 11.06988281 0.10695313 12.01476563 0.09765625 12.98828125 C0.07404522 15.32577292 0.04111516 17.66276123 0 20 C3.1647977 20.70390422 6.07136949 21.11743442 9.3125 21.0625 C10.529375 21.041875 11.74625 21.02125 13 21 C14.50156874 24.00313748 14.09281204 26.79067522 14.0625 30.125 C14.05347656 31.40632813 14.04445313 32.68765625 14.03515625 34.0078125 C14.02355469 34.99523437 14.01195312 35.98265625 14 37 C11.3618463 38.31907685 9.37722213 38.06132406 6.4375 38 C4.62539219 37.96229685 2.81190256 37.95346639 1 38 C-1.60133768 40.60133768 -0.23009031 47.66162764 -0.24023438 51.19091797 C-0.24989548 53.2279615 -0.28088334 55.26397673 -0.3125 57.30078125 C-0.31765625 58.58855469 -0.3228125 59.87632813 -0.328125 61.203125 C-0.3374707 62.38551758 -0.34681641 63.56791016 -0.35644531 64.78613281 C0.03475313 68.31334942 0.88386655 70.18063535 3 73 C5.15838815 74.26553307 5.15838815 74.26553307 8.5625 74 C9.696875 74 10.83125 74 12 74 C13 75 13 75 13.11352539 76.76586914 C13.10828857 77.51473389 13.10305176 78.26359863 13.09765625 79.03515625 C13.09443359 79.84404297 13.09121094 80.65292969 13.08789062 81.48632812 C13.07532227 82.7615332 13.07532227 82.7615332 13.0625 84.0625 C13.05798828 84.91650391 13.05347656 85.77050781 13.04882812 86.65039062 C13.03700373 88.76695663 13.01906769 90.88348685 13 93 C-6.42009365 94.01380999 -6.42009365 94.01380999 -14 88 C-17.50575631 84.23036956 -19.09798026 80.12111889 -19.18945312 75.00341797 C-19.20617065 74.20604218 -19.22288818 73.40866638 -19.2401123 72.58712769 C-19.25368774 71.73079742 -19.26726318 70.87446716 -19.28125 69.9921875 C-19.29965942 69.11096222 -19.31806885 68.22973694 -19.33703613 67.32180786 C-19.41577833 63.54815889 -19.48365404 59.77433331 -19.55224609 56.00048828 C-19.6038297 53.24762757 -19.66111817 50.49492713 -19.71875 47.7421875 C-19.73232544 46.88180878 -19.74590088 46.02143005 -19.7598877 45.13497925 C-19.46461425 41.2531889 -19.46461425 41.2531889 -21 38 C-22.68183948 37.76712992 -24.3712416 37.58735834 -26.0625 37.4375 C-27.691875 37.293125 -29.32125 37.14875 -31 37 C-31 31.72 -31 26.44 -31 21 C-29.370625 21.020625 -27.74125 21.04125 -26.0625 21.0625 C-24.37500659 21.08386068 -22.68608966 21.07205511 -21 21 C-19.77215191 19.99440206 -19.77215191 19.99440206 -19.88647461 17.95874023 C-19.89171143 17.08419189 -19.89694824 16.20964355 -19.90234375 15.30859375 C-19.90556641 14.36435547 -19.90878906 13.42011719 -19.91210938 12.44726562 C-19.92048828 11.45404297 -19.92886719 10.46082031 -19.9375 9.4375 C-19.94201172 8.44041016 -19.94652344 7.44332031 -19.95117188 6.41601562 C-19.96299993 3.94395151 -19.97948151 1.47200482 -20 -1 C-17.04210873 -1.2210949 -14.08447236 -1.42740245 -11.125 -1.625 C-10.28324219 -1.68945312 -9.44148437 -1.75390625 -8.57421875 -1.8203125 C-7.36572266 -1.89765625 -7.36572266 -1.89765625 -6.1328125 -1.9765625 C-5.38918457 -2.02893066 -4.64555664 -2.08129883 -3.87939453 -2.13525391 C-2 -2 -2 -2 0 0 Z " fill="#3A27F2" transform="translate(537,50)"/>
<path d="M0 0 C0.495 9.405 0.495 9.405 1 19 C-1.18625 19.4125 -3.3725 19.825 -5.625 20.25 C-13.73619451 21.99979398 -18.16386464 24.01447115 -23 31 C-23.88565586 33.65696758 -24.1450262 35.28190083 -24.20532227 38.01245117 C-24.22526749 38.81305466 -24.24521271 39.61365814 -24.26576233 40.43852234 C-24.29083107 41.72772331 -24.29083107 41.72772331 -24.31640625 43.04296875 C-24.33718735 43.9265657 -24.35796844 44.81016266 -24.37937927 45.72053528 C-24.44475754 48.54277785 -24.50370528 51.36511335 -24.5625 54.1875 C-24.60569637 56.10092106 -24.64931102 58.01433273 -24.69335938 59.92773438 C-24.80121406 64.61839572 -24.90037461 69.30912773 -25 74 C-31.27 74 -37.54 74 -44 74 C-44 50.57 -44 27.14 -44 3 C-40.23699626 1.74566542 -36.72789091 1.89304578 -32.8125 1.9375 C-32.06291016 1.94201172 -31.31332031 1.94652344 -30.54101562 1.95117188 C-28.69397617 1.96293646 -26.84697787 1.98087135 -25 2 C-24.67 4.64 -24.34 7.28 -24 10 C-23.32195312 9.52949219 -22.64390625 9.05898437 -21.9453125 8.57421875 C-15.14310278 4.02371003 -8.39725259 0 0 0 Z " fill="#3C28EF" transform="translate(362,69)"/>
<path d="M0 0 C3.00373847 -0.28650443 4.51532324 -0.34447131 7.01708984 1.43359375 C7.97929443 2.42552734 7.97929443 2.42552734 8.9609375 3.4375 C9.68023437 4.16839844 10.39953125 4.89929688 11.140625 5.65234375 C11.87796875 6.42707031 12.6153125 7.20179687 13.375 8 C14.10460938 8.74378906 14.83421875 9.48757812 15.5859375 10.25390625 C19.71679858 14.49541539 23.68013933 18.84876652 27.515625 23.35888672 C29.46755097 25.51692067 31.71980643 27.19984718 34 29 C39.39489914 34.57777708 40.13002097 38.31505157 40.09765625 45.953125 C40.0962413 46.61334656 40.09482635 47.27356812 40.09336853 47.95379639 C40.08779245 50.05257794 40.07524447 52.15125095 40.0625 54.25 C40.0574819 55.67708179 40.05291954 57.10416525 40.04882812 58.53125 C40.03783088 62.02086832 40.0205828 65.51042356 40 69 C38.2339325 69.69548035 38.2339325 69.69548035 36 70 C34.15901184 68.7804718 34.15901184 68.7804718 32.25708008 66.87231445 C31.53986282 66.16440262 30.82264557 65.45649078 30.08369446 64.72712708 C29.3200206 63.94705795 28.55634674 63.16698883 27.76953125 62.36328125 C26.9785051 61.57229538 26.18747894 60.78130951 25.3724823 59.96635437 C23.69977728 58.28828054 22.03320826 56.60407161 20.37231445 54.91430664 C17.82635094 52.32657816 15.25981868 49.76073285 12.68945312 47.19726562 C11.06904489 45.56636264 9.44986249 43.93424061 7.83203125 42.30078125 C6.67741142 41.1458593 6.67741142 41.1458593 5.49946594 39.96760559 C4.79170517 39.24393295 4.0839444 38.52026031 3.35473633 37.7746582 C2.72948563 37.14098831 2.10423492 36.50731842 1.46003723 35.85444641 C-1.47371223 32.12818448 -1.12826576 28.14754886 -1.1328125 23.5546875 C-1.13410156 22.31332031 -1.13539062 21.07195313 -1.13671875 19.79296875 C-1.13285156 18.50003906 -1.12898438 17.20710938 -1.125 15.875 C-1.12886719 14.57433594 -1.13273437 13.27367187 -1.13671875 11.93359375 C-1.13542969 10.69480469 -1.13414063 9.45601562 -1.1328125 8.1796875 C-1.13168457 7.04257324 -1.13055664 5.90545898 -1.12939453 4.73388672 C-1 2 -1 2 0 0 Z " fill="#3927ED" transform="translate(44,10)"/>
<path d="M0 0 C0.99 0 1.98 0 3 0 C5.23031987 5.37745106 5.26816392 10.16059774 5.1875 15.875 C5.18685547 16.73480469 5.18621094 17.59460938 5.18554688 18.48046875 C5.09002823 32.46864326 5.09002823 32.46864326 2.3984375 36.25 C1.73070312 36.8275 1.06296875 37.405 0.375 38 C-2.34408118 40.40740784 -4.80372649 42.87366876 -7.171875 45.62109375 C-11.48377708 50.60597169 -16.01778062 55.3508983 -20.625 60.0625 C-21.45773438 60.94099609 -22.29046875 61.81949219 -23.1484375 62.72460938 C-23.95796875 63.54896484 -24.7675 64.37332031 -25.6015625 65.22265625 C-26.32682129 65.97297119 -27.05208008 66.72328613 -27.79931641 67.49633789 C-30 69 -30 69 -32.71240234 68.79858398 C-35 68 -35 68 -36 67 C-36.29062261 62.79884778 -36.31405729 58.59173992 -36.35009766 54.38183594 C-36.36661753 52.96760557 -36.39385597 51.55345734 -36.43212891 50.13964844 C-36.48711831 48.09786806 -36.50880445 46.05804781 -36.5234375 44.015625 C-36.54325684 42.79133789 -36.56307617 41.56705078 -36.58349609 40.30566406 C-35.83874566 36.08645033 -34.21013808 34.73447332 -31 32 C-28.64110528 29.35541263 -26.31215151 26.6870988 -23.98828125 24.01171875 C-23.33214844 23.34785156 -22.67601562 22.68398437 -22 22 C-21.34 22 -20.68 22 -20 22 C-19.67 21.01 -19.34 20.02 -19 19 C-17.0625 16.8125 -17.0625 16.8125 -15 15 C-14.34 15 -13.68 15 -13 15 C-13 14.34 -13 13.68 -13 13 C-12.34 13 -11.68 13 -11 13 C-11 12.34 -11 11.68 -11 11 C-9.609375 9.66796875 -9.609375 9.66796875 -7.75 8.1875 C-5.37312303 6.2371191 -3.66934738 4.57749943 -1.75 2.125 C-1.1725 1.42375 -0.595 0.7225 0 0 Z " fill="#3B28EC" transform="translate(79,110)"/>
<path d="M0 0 C-0.37596209 2.78211944 -0.67318459 4.5879284 -2.4375 6.8125 C-4 8 -4 8 -6 8 C-6 8.66 -6 9.32 -6 10 C-7.66215268 11.33895632 -9.32963607 12.67130142 -11 14 C-11.721875 14.9075 -12.44375 15.815 -13.1875 16.75 C-13.785625 17.4925 -14.38375 18.235 -15 19 C-15.66 19 -16.32 19 -17 19 C-17.226875 19.556875 -17.45375 20.11375 -17.6875 20.6875 C-19.74805294 24.31799803 -22.40647953 27.22600435 -26.1875 29.0625 C-28.53801104 30.27828157 -28.87248269 31.66979756 -30 34 C-30.99 34.33 -31.98 34.66 -33 35 C-33 35.66 -33 36.32 -33 37 C-36.83107756 39.92849106 -39.75320884 40.38417165 -44.5078125 40.3984375 C-45.74144531 40.40230469 -46.97507812 40.40617187 -48.24609375 40.41015625 C-50.16615234 40.39275391 -50.16615234 40.39275391 -52.125 40.375 C-53.41277344 40.38660156 -54.70054688 40.39820313 -56.02734375 40.41015625 C-57.25839844 40.40628906 -58.48945312 40.40242188 -59.7578125 40.3984375 C-61.44608154 40.39336182 -61.44608154 40.39336182 -63.16845703 40.38818359 C-66 40 -66 40 -67.89013672 38.47509766 C-68.2563916 37.98831543 -68.62264648 37.5015332 -69 37 C-67.56477886 32.30482274 -64.82885457 29.40612692 -61.40625 26.04296875 C-60.85892212 25.49514236 -60.31159424 24.94731598 -59.74768066 24.38288879 C-58.59465749 23.23219772 -57.43796028 22.08517775 -56.27783203 20.94165039 C-54.49718102 19.18471857 -52.73035391 17.41471079 -50.96484375 15.64257812 C-49.84193785 14.52524513 -48.71826628 13.40868099 -47.59375 12.29296875 C-46.7983783 11.49622993 -46.7983783 11.49622993 -45.98693848 10.68339539 C-42.23105837 7 -42.23105837 7 -40 7 C-39.7525 6.401875 -39.505 5.80375 -39.25 5.1875 C-37.77277799 2.60236149 -36.52642852 1.56812805 -34 0 C-23.04649757 -2.16100726 -11.01595747 -1.36480889 0 0 Z " fill="#3B28EE" transform="translate(74,103)"/>
<path d="M0 0 C4.89289165 -0.1238948 9.78486427 -0.21447509 14.67895508 -0.2746582 C16.34252839 -0.29975347 18.00599196 -0.33383796 19.66918945 -0.37719727 C22.06489153 -0.4380746 24.45913251 -0.46625769 26.85546875 -0.48828125 C27.96513252 -0.52699089 27.96513252 -0.52699089 29.09721375 -0.56648254 C33.11887631 -0.56865118 34.77118291 -0.19223493 37.89379883 2.43115234 C38.58884521 3.27887207 39.2838916 4.1265918 40 5 C41.15349723 5.99464698 42.31857148 6.97619613 43.5 7.9375 C45.83122255 9.89876767 47.8357045 11.88019442 49.75 14.25 C51.88779286 17.13659999 51.88779286 17.13659999 55 19 C55 19.66 55 20.32 55 21 C55.61875 21.2475 56.2375 21.495 56.875 21.75 C59.35068687 23.20628639 59.95125002 24.37812506 61 27 C61.66 27 62.32 27 63 27 C63 27.66 63 28.32 63 29 C63.928125 29.433125 63.928125 29.433125 64.875 29.875 C67 31 67 31 69 33 C69.125 35.625 69.125 35.625 69 38 C63.69913147 41.18546849 57.68843068 40.44938593 51.6875 40.5 C49.87088867 40.561875 49.87088867 40.561875 48.01757812 40.625 C38.01728158 40.71257786 38.01728158 40.71257786 33.64453125 37.09375 C31 34.43423672 31 34.43423672 31 32 C30.46987305 31.79366943 29.93974609 31.58733887 29.39355469 31.37475586 C26.00862528 29.43059659 23.44075592 26.74591494 20.703125 24.00390625 C20.10949158 23.41455795 19.51585815 22.82520966 18.90423584 22.21800232 C17.65447883 20.97397616 16.40731793 19.72733718 15.16259766 18.47827148 C13.25156433 16.56406693 11.327565 14.66359359 9.40234375 12.76367188 C8.18929423 11.55289425 6.97702706 10.34133219 5.765625 9.12890625 C5.18758118 8.56007217 4.60953735 7.9912381 4.01397705 7.40516663 C0 3.34380543 0 3.34380543 0 0 Z " fill="#3A27F1" transform="translate(107,103)"/>
<path d="M0 0 C1.29099609 0.04705078 2.58199219 0.09410156 3.91210938 0.14257812 C4.91479858 0.18741333 4.91479858 0.18741333 5.93774414 0.2331543 C7.99141234 0.3243578 10.04518268 0.39882885 12.09960938 0.47070312 C22.15765527 0.86859277 22.15765527 0.86859277 23.30078125 2.01171875 C23.75623296 4.66852036 23.70717776 6.36573027 22.25390625 8.67578125 C20.92578125 10.32421875 20.92578125 10.32421875 18.30078125 13.01171875 C17.64078125 13.01171875 16.98078125 13.01171875 16.30078125 13.01171875 C16.30078125 13.67171875 16.30078125 14.33171875 16.30078125 15.01171875 C15.64078125 15.01171875 14.98078125 15.01171875 14.30078125 15.01171875 C13.97078125 16.00171875 13.64078125 16.99171875 13.30078125 18.01171875 C11.60720095 19.67523549 9.76375938 21.08807972 7.90234375 22.5625 C5.69926167 24.63657277 4.34851195 26.3307477 2.69921875 28.8046875 C-1.11669764 34.05102882 -5.00664334 39.05573078 -11.69573975 40.41845703 C-22.92031867 41.8035269 -34.46256163 40.88392166 -45.69921875 40.01171875 C-44.39763967 36.21880385 -42.9154497 33.85891246 -40.06640625 31.05078125 C-39.34195313 30.33148438 -38.6175 29.6121875 -37.87109375 28.87109375 C-37.113125 28.13375 -36.35515625 27.39640625 -35.57421875 26.63671875 C-34.47207031 25.54230469 -34.47207031 25.54230469 -33.34765625 24.42578125 C-29.79528471 20.92344311 -26.18984767 17.52968561 -22.41015625 14.2734375 C-18.73956142 11.10672101 -15.65844727 7.65079265 -12.55859375 3.9296875 C-8.6777219 -0.07348073 -5.46925416 -0.21185429 0 0 Z " fill="#3B29EC" transform="translate(152.69921875,46.98828125)"/>
<path d="M0 0 C1.10730469 -0.02449219 2.21460938 -0.04898438 3.35546875 -0.07421875 C10.00103193 -0.09792468 15.41782486 0.1424348 20.75 4.375 C23.0398735 6.67816307 25.15966475 9.07431882 27.26904297 11.54394531 C29.94112882 14.59309976 32.75359116 17.4199235 35.66015625 20.2421875 C36.16340424 20.73487122 36.66665222 21.22755493 37.18515015 21.73516846 C39.25612133 23.76227659 41.33035171 25.78567103 43.41772461 27.79589844 C44.96591821 29.28985671 46.50130837 30.79602349 48.03515625 32.3046875 C48.94144775 33.18366699 49.84773926 34.06264648 50.78149414 34.96826172 C52.75 37.375 52.75 37.375 52.75 41.375 C39.93346987 43.17457345 24.27866521 45.33811002 13.14794922 37.41552734 C3.60305171 29.73696665 -4.96127194 20.20527233 -12.25 10.375 C-12.25 9.715 -12.25 9.055 -12.25 8.375 C-13.24 8.045 -14.23 7.715 -15.25 7.375 C-15.58 5.725 -15.91 4.075 -16.25 2.375 C-11.16467148 -0.6398089 -5.74905202 0.00660052 0 0 Z " fill="#3A27F0" transform="translate(21.25,46.625)"/>
<path d="M0 0 C0.66153076 0.29173096 1.32306152 0.58346191 2.00463867 0.8840332 C2.12861014 5.34967621 2.21914859 9.81439759 2.27929688 14.28125 C2.30437976 15.79933122 2.33845527 17.31729238 2.38183594 18.83496094 C2.4427716 21.02219286 2.47090762 23.2078236 2.49291992 25.39575195 C2.519104 26.71019287 2.54528809 28.02463379 2.57226562 29.37890625 C1.84485197 33.87072467 0.43520398 34.96037404 -2.99536133 37.8840332 C-4.09196836 38.98072485 -5.17729712 40.08876586 -6.25341797 41.20556641 C-9.48286512 44.5060032 -12.72431086 47.7943643 -15.97021484 51.07861328 C-17.36734133 52.49599982 -18.76087741 53.91693403 -20.15087891 55.34130859 C-22.16393923 57.40273358 -24.18951176 59.45110109 -26.21801758 61.49731445 C-27.14784203 62.45810661 -27.14784203 62.45810661 -28.09645081 63.43830872 C-28.68063278 64.02279282 -29.26481476 64.60727692 -29.86669922 65.20947266 C-30.37568253 65.72733841 -30.88466583 66.24520416 -31.40907288 66.77876282 C-32.99536133 67.8840332 -32.99536133 67.8840332 -36.99536133 67.8840332 C-39.4091303 56.33507704 -41.83235763 42.06722998 -35.52655029 31.39910889 C-31.08106478 25.23535602 -25.80566901 19.91824187 -20.30786133 14.6965332 C-19.12006073 13.56069794 -19.12006073 13.56069794 -17.90826416 12.4019165 C-15.60997696 10.23994289 -13.28135932 8.1226375 -10.92114258 6.02856445 C-10.20306931 5.38755295 -9.48499603 4.74654144 -8.74516296 4.08610535 C-3.71739392 -0.14392062 -3.71739392 -0.14392062 0 0 Z " fill="#3B29ED" transform="translate(135.995361328125,11.115966796875)"/>
<path d="M0 0 C1.32 0 2.64 0 4 0 C5.04661379 1.63779649 6.03384598 3.31348757 7 5 C9.2286404 7.51706539 11.63815616 9.84731462 14.0390625 12.19921875 C14.72052338 12.87547806 15.40198425 13.55173737 16.10409546 14.24848938 C18.27301528 16.39965206 20.44852691 18.54398191 22.625 20.6875 C24.80771391 22.84260589 26.98895338 24.99915335 29.16732788 27.15864563 C30.52122065 28.50026895 31.87777739 29.83921023 33.23721313 31.17521667 C33.84809784 31.77957047 34.45898254 32.38392426 35.08837891 33.0065918 C35.62782135 33.53778122 36.16726379 34.06897064 36.72305298 34.61625671 C40.55313533 38.76666441 39.18593464 45.13955032 39.18530273 50.43115234 C39.18749158 52.49207127 39.20565983 54.5524569 39.22460938 56.61328125 C39.22654297 57.90621094 39.22847656 59.19914062 39.23046875 60.53125 C39.23457764 61.72298828 39.23868652 62.91472656 39.24291992 64.14257812 C39 67 39 67 37 69 C33.31664774 68.90044994 32.00595516 68.00516114 29.1875 65.5625 C27 63 27 63 27 61 C25.515 60.505 25.515 60.505 24 60 C24 59.34 24 58.68 24 58 C23.45859375 57.7834375 22.9171875 57.566875 22.359375 57.34375 C19.18354656 55.53500003 16.79271919 53.08276201 14.25 50.5 C13.74339844 50.00113281 13.23679687 49.50226563 12.71484375 48.98828125 C9 45.25341139 9 45.25341139 9 43 C8.34 43 7.68 43 7 43 C3.805544 40.85268741 1.82522735 38.37472156 0 35 C-1.03205428 29.18209058 -1.02558008 23.45627122 -1 17.5625 C-1.0217151 15.96935695 -1.04642827 14.37625178 -1.07421875 12.78320312 C-1.12465948 8.84880001 -1.16803972 4.93194416 -1 1 C-0.67 0.67 -0.34 0.34 0 0 Z " fill="#3B28F1" transform="translate(99,109)"/>
<path d="M0 0 C5.94 0 11.88 0 18 0 C18.83667209 4.18336045 19.12146435 7.50242897 19.11352539 11.71801758 C19.11367142 12.37223694 19.11381744 13.0264563 19.1139679 13.70050049 C19.11327494 15.84854526 19.10551164 17.99650175 19.09765625 20.14453125 C19.09578988 21.63954114 19.09436701 23.13455165 19.09336853 24.62956238 C19.08956064 28.55371811 19.07974518 32.4778365 19.06866455 36.40197754 C19.05841321 40.41055801 19.05386294 44.41914455 19.04882812 48.42773438 C19.03812129 56.28517525 19.02053856 64.14257867 19 72 C9.595 72.495 9.595 72.495 0 73 C-0.87617969 69.49528122 -1.1265284 66.95661021 -1.12939453 63.39624023 C-1.13254669 62.27084335 -1.13569885 61.14544647 -1.13894653 59.98594666 C-1.1369223 58.7724202 -1.13489807 57.55889374 -1.1328125 56.30859375 C-1.13376923 55.05297134 -1.13472595 53.79734894 -1.13571167 52.50367737 C-1.13639252 49.8431556 -1.1350476 47.18272548 -1.13037109 44.5222168 C-1.12471474 41.14244327 -1.12792876 37.76274989 -1.13394356 34.38297939 C-1.13847163 31.12901485 -1.13527872 27.87505935 -1.1328125 24.62109375 C-1.13483673 23.42173691 -1.13686096 22.22238007 -1.13894653 20.98667908 C-1.11955049 13.92605427 -0.74276966 7.02238187 0 0 Z " fill="#3A28EE" transform="translate(747,71)"/>
<path d="M0 0 C3.05386395 3.12834843 4.22864879 5.70771716 4.5 10 C4.29128664 14.18229459 2.67345807 16.77612409 0 20 C-3.70487832 21.85243916 -7.95614188 21.4585162 -12 21 C-15.21725013 19.1902968 -16.54322539 17.82654453 -18.3125 14.625 C-19.15790564 11.39708755 -19.53243414 9.32771338 -19 6 C-16.94366059 2.74858022 -14.75254471 -0.33032845 -11.078125 -1.734375 C-7.16740575 -2.23424137 -3.64104954 -1.44973899 0 0 Z " fill="#3B28F1" transform="translate(648,123)"/>
<path d="M0 0 C3.81357279 3.23324649 5.83136779 5.24622504 6.3125 10.25 C5.86351228 15.63785269 3.73560481 18.41316131 -0.1875 22 C-4.4311542 23.50885483 -7.89351596 22.71935033 -12 21 C-15.24275483 17.75724517 -16.87380241 15.31245494 -17.3125 10.75 C-16.93923351 6.27080206 -15.96302765 4.3528997 -13 1 C-8.4569297 -1.32201371 -4.89273996 -1.33438363 0 0 Z " fill="#3B28F1" transform="translate(761,44)"/>
<path d="M0 0 C0.74507812 0.00902344 1.49015625 0.01804687 2.2578125 0.02734375 C4.08868059 0.05081642 5.91938238 0.08668475 7.75 0.125 C7.13443385 6.00707656 4.92339219 11.08597435 2.6875 16.5 C2.31044922 17.42683594 1.93339844 18.35367188 1.54492188 19.30859375 C0.61873604 21.58302479 -0.31302668 23.85499667 -1.25 26.125 C-1.58 26.125 -1.91 26.125 -2.25 26.125 C-2.5 20.5 -2.5 20.5 -0.25 17.125 C0.13499891 15.46950469 0.47793135 13.8027567 0.75 12.125 C1.41 12.125 2.07 12.125 2.75 12.125 C2.75 11.465 2.75 10.805 2.75 10.125 C1.1 10.125 -0.55 10.125 -2.25 10.125 C-2.25 9.135 -2.25 8.145 -2.25 7.125 C-3.28125 7.785 -4.3125 8.445 -5.375 9.125 C-8.78576826 11.09782726 -11.2701643 11.51327665 -15.25 11.125 C-14.85246179 9.66133658 -14.43118616 8.2041065 -14 6.75 C-13.76796875 5.93789062 -13.5359375 5.12578125 -13.296875 4.2890625 C-12.25 2.125 -12.25 2.125 -10.65625 0.84375 C-7.12123928 -0.21216229 -3.65031244 -0.0838411 0 0 Z " fill="#3B29EF" transform="translate(628.25,70.875)"/>
<path d="M0 0 C0.66 -1.98 1.32 -3.96 2 -6 C8.27 -6 14.54 -6 21 -6 C22.44957456 -3.10085089 22.11932924 -0.585717 22.11352539 2.65283203 C22.11367142 3.33587402 22.11381744 4.01891602 22.1139679 4.72265625 C22.11327023 6.9844071 22.10548465 9.246076 22.09765625 11.5078125 C22.09579155 13.07437088 22.09436789 14.64092984 22.09336853 16.20748901 C22.08954743 20.33389898 22.0797206 24.46027384 22.06866455 28.58666992 C22.0584417 32.79605637 22.05386903 37.00544847 22.04882812 41.21484375 C22.03809798 49.47658042 22.02050446 57.7382818 22 66 C15.4 66 8.8 66 2 66 C2 64.02 2 62.04 2 60 C2.66 60 3.32 60 4 60 C4 61.32 4 62.64 4 64 C9.28 64 14.56 64 20 64 C20 41.56 20 19.12 20 -4 C15.05 -3.67 10.1 -3.34 5 -3 C4.34 -3.33 3.68 -3.66 3 -4 C3 -1.69 3 0.62 3 3 C-0.37462715 2.45276317 -2.08235 1.9451 -5 0 C-5 -0.66 -5 -1.32 -5 -2 C-5.9075 -2.12375 -6.815 -2.2475 -7.75 -2.375 C-11 -3 -11 -3 -12.78125 -4 C-15.77592575 -5.34971301 -18.48173724 -5.42890423 -21.75 -5.625 C-23.50570313 -5.73714844 -23.50570313 -5.73714844 -25.296875 -5.8515625 C-26.18890625 -5.90054688 -27.0809375 -5.94953125 -28 -6 C-28 -6.33 -28 -6.66 -28 -7 C-17.19006204 -8.93582222 -8.64399646 -6.93150659 0 0 Z " fill="#4234C4" transform="translate(423,77)"/>
<path d="M0 0 C2.475 0.495 2.475 0.495 5 1 C5 5.95 5 10.9 5 16 C2.3618463 17.31907685 0.37722213 17.06132406 -2.5625 17 C-4.37460781 16.96229685 -6.18809744 16.95346639 -8 17 C-10.60133768 19.60133768 -9.23009031 26.66162764 -9.24023438 30.19091797 C-9.24989548 32.2279615 -9.28088334 34.26397673 -9.3125 36.30078125 C-9.31765625 37.58855469 -9.3228125 38.87632813 -9.328125 40.203125 C-9.3374707 41.38551758 -9.34681641 42.56791016 -9.35644531 43.78613281 C-8.96524687 47.31334942 -8.11613345 49.18063535 -6 52 C-3.84161185 53.26553307 -3.84161185 53.26553307 -0.4375 53 C0.696875 53 1.83125 53 3 53 C4 54 4 54 4.11352539 55.76586914 C4.10828857 56.51473389 4.10305176 57.26359863 4.09765625 58.03515625 C4.09443359 58.84404297 4.09121094 59.65292969 4.08789062 60.48632812 C4.07951172 61.33646484 4.07113281 62.18660156 4.0625 63.0625 C4.05798828 63.91650391 4.05347656 64.77050781 4.04882812 65.65039062 C4.03700373 67.76695663 4.01906769 69.88348685 4 72 C1.3118751 72.08164159 -1.373723 72.14079668 -4.0625 72.1875 C-4.81466797 72.21263672 -5.56683594 72.23777344 -6.34179688 72.26367188 C-11.66631856 72.33282151 -15.24346434 71.40669334 -20 69 C-16.25 67.875 -16.25 67.875 -14 69 C-11.28737884 69.2322646 -8.59226874 69.41936235 -5.875 69.5625 C-4.74384766 69.62727539 -4.74384766 69.62727539 -3.58984375 69.69335938 C-1.72678112 69.7994832 0.13658524 69.90025001 2 70 C1.91621094 69.32453125 1.83242188 68.6490625 1.74609375 67.953125 C1.64425781 67.06109375 1.54242187 66.1690625 1.4375 65.25 C1.33308594 64.36828125 1.22867188 63.4865625 1.12109375 62.578125 C1.00543324 60.11567549 1.26361305 58.33461936 2 56 C1.09507812 56.10441406 1.09507812 56.10441406 0.171875 56.2109375 C-0.62734375 56.26507813 -1.4265625 56.31921875 -2.25 56.375 C-3.43335938 56.47941406 -3.43335938 56.47941406 -4.640625 56.5859375 C-7 56 -7 56 -9.12084961 53.44677734 C-11.24765588 49.54574435 -11.5362665 46.58576683 -11.42578125 42.265625 C-11.42249313 41.54638855 -11.41920502 40.8271521 -11.41581726 40.08612061 C-11.40545102 38.57668914 -11.38559434 37.06729575 -11.35668945 35.55810547 C-11.31236488 33.24294226 -11.29520961 30.92881757 -11.28320312 28.61328125 C-11.26978777 27.14321412 -11.2548672 25.67315978 -11.23828125 24.203125 C-11.23089432 23.51043518 -11.22350739 22.81774536 -11.21589661 22.10406494 C-11.11846364 17.23692729 -11.11846364 17.23692729 -10 15 C-5.71 15 -1.42 15 3 15 C3 10.38 3 5.76 3 1 C2.01 0.67 1.02 0.34 0 0 Z " fill="#3E2EC9" transform="translate(546,71)"/>
<path d="M0 0 C3.3 0 6.6 0 10 0 C10 5.28 10 10.56 10 16 C5.36132812 16.34179688 5.36132812 16.34179688 0.72265625 16.68359375 C-1.91109903 16.70418084 -1.91109903 16.70418084 -3 18 C-3.12299166 19.68709347 -3.17785258 21.37920903 -3.20532227 23.07055664 C-3.22526749 24.15160172 -3.24521271 25.23264679 -3.26576233 26.34645081 C-3.29083107 28.110485 -3.29083107 28.110485 -3.31640625 29.91015625 C-3.33718735 31.10732773 -3.35796844 32.30449921 -3.37937927 33.53794861 C-3.44500279 37.37940487 -3.50381903 41.22093201 -3.5625 45.0625 C-3.60567305 47.65951267 -3.64928693 50.25651806 -3.69335938 52.85351562 C-3.8006972 59.2356036 -3.90192818 65.61776318 -4 72 C-10.27 72 -16.54 72 -23 72 C-23 54.18 -23 36.36 -23 18 C-22.67 18 -22.34 18 -22 18 C-22 35.49 -22 52.98 -22 71 C-16.39 71 -10.78 71 -5 71 C-5.01047363 69.38512695 -5.02094727 67.77025391 -5.03173828 66.10644531 C-5.06791263 60.12046522 -5.09089124 54.13449481 -5.10986328 48.1484375 C-5.11992668 45.5566241 -5.13357864 42.96482207 -5.15087891 40.37304688 C-5.17511195 36.64971106 -5.18647974 32.92652523 -5.1953125 29.203125 C-5.20563507 28.04258606 -5.21595764 26.88204712 -5.22659302 25.68634033 C-5.22674408 24.60552185 -5.22689514 23.52470337 -5.22705078 22.41113281 C-5.231492 21.46071106 -5.23593323 20.51028931 -5.24050903 19.53106689 C-5 17 -5 17 -3 13 C2.445 13.495 2.445 13.495 8 14 C8.33 9.71 8.66 5.42 9 1 C6.03 1 3.06 1 0 1 C0 0.67 0 0.34 0 0 Z " fill="#3D31B9" transform="translate(488,71)"/>
<path d="M0 0 C0.33 0 0.66 0 1 0 C1.33 22.11 1.66 44.22 2 67 C-7.405 67.495 -7.405 67.495 -17 68 C-17.99028143 64.03887427 -17.9901056 61.34573578 -17.6875 57.3125 C-17.60886719 56.15363281 -17.53023437 54.99476563 -17.44921875 53.80078125 C-17.30097656 52.87652344 -17.15273438 51.95226562 -17 51 C-16.01 50.505 -16.01 50.505 -15 50 C-14.97306425 52.12493141 -14.95363372 54.24995912 -14.9375 56.375 C-14.92589844 57.55835938 -14.91429687 58.74171875 -14.90234375 59.9609375 C-15 63 -15 63 -16 65 C-10.72 65 -5.44 65 0 65 C0 43.55 0 22.1 0 0 Z " fill="#4436C8" transform="translate(764,76)"/>
<path d="M0 0 C2.58297781 2.18991597 4.48415844 3.96831688 6 7 C6.1875 10.5 6.1875 10.5 6 14 C5.34 14.66 4.68 15.32 4 16 C4 13.03 4 10.06 4 7 C2.68 7 1.36 7 0 7 C-0.33 5.35 -0.66 3.7 -1 2 C-4.63 2 -8.26 2 -12 2 C-12 2.66 -12 3.32 -12 4 C-12.66 4 -13.32 4 -14 4 C-14.08159574 8.16138263 -13.98248524 11.9472484 -13 16 C-12.01 16 -11.02 16 -10 16 C-10 16.99 -10 17.98 -10 19 C-8.35 18.34 -6.7 17.68 -5 17 C-5 17.99 -5 18.98 -5 20 C-4.01 20.66 -3.02 21.32 -2 22 C-5.00652963 23.32287304 -6.28141367 22.91457085 -9.5 21.9375 C-13.34789211 20.10871687 -15.13706402 17.87490684 -17 14 C-17.61221474 9.71449683 -17.28500541 7.58097257 -15.375 3.6875 C-10.94660949 -1.32357348 -6.30216955 -1.71877351 0 0 Z " fill="#493CC7" transform="translate(761,44)"/>
<path d="M0 0 C1.32 0.33 2.64 0.66 4 1 C3.5155542 1.79744629 3.0311084 2.59489258 2.53198242 3.41650391 C0.62243117 7.88318013 0.52463437 11.53440395 0.48828125 16.3359375 C0.47033005 17.21528961 0.45237885 18.09464172 0.43388367 19.00064087 C0.37997188 21.79204605 0.34594671 24.58328211 0.3125 27.375 C0.27931 29.27476302 0.24481879 31.17450377 0.20898438 33.07421875 C0.12425651 37.71602344 0.05735439 42.35777965 0 47 C-5.61 47 -11.22 47 -17 47 C-17 46.34 -17 45.68 -17 45 C-12.05 45 -7.1 45 -2 45 C-2 32.13 -2 19.26 -2 6 C-1.34 6 -0.68 6 0 6 C0 4.02 0 2.04 0 0 Z " fill="#4233CB" transform="translate(337,96)"/>
<path d="M0 0 C0.33 6.27 0.66 12.54 1 19 C-1.18625 19.4125 -3.3725 19.825 -5.625 20.25 C-11.03967365 21.39856714 -14.76959146 22.47465955 -19 26 C-19.66 26.33 -20.32 26.66 -21 27 C-21 26.01 -21 25.02 -21 24 C-20.34 24 -19.68 24 -19 24 C-19.66 22.35 -20.32 20.7 -21 19 C-20.01 19 -19.02 19 -18 19 C-18 18.34 -18 17.68 -18 17 C-16.02 16.34 -14.04 15.68 -12 15 C-11.67 15.66 -11.34 16.32 -11 17 C-8.64400765 17.46751788 -8.64400765 17.46751788 -5.9375 17.625 C-3.4934375 17.810625 -3.4934375 17.810625 -1 18 C-1 12.72 -1 7.44 -1 2 C-3.31 2.66 -5.62 3.32 -8 4 C-10.9375 4.125 -10.9375 4.125 -13 4 C-10.84184495 1.84184495 -9.94361015 1.55101467 -7.0625 0.875 C-6.37285156 0.70742187 -5.68320312 0.53984375 -4.97265625 0.3671875 C-3 0 -3 0 0 0 Z " fill="#4131D6" transform="translate(362,69)"/>
<path d="M0 0 C6.3636922 -0.09020698 12.59232157 0.29977463 18.90625 1.08203125 C18.53028791 3.86415069 18.23306541 5.66995965 16.46875 7.89453125 C14.90625 9.08203125 14.90625 9.08203125 12.90625 9.08203125 C12.57625 9.74203125 12.24625 10.40203125 11.90625 11.08203125 C12.78125 5.20703125 12.78125 5.20703125 13.90625 4.08203125 C9.84953317 4.00771147 5.79308154 3.95334992 1.73583984 3.91723633 C0.35653782 3.90217703 -1.02271653 3.88172512 -2.40185547 3.85571289 C-4.38748403 3.8192071 -6.37346618 3.80388272 -8.359375 3.7890625 C-9.55336914 3.77335205 -10.74736328 3.7576416 -11.97753906 3.74145508 C-15.32868371 4.10770757 -16.66960392 4.80742665 -19.09375 7.08203125 C-19.75375 6.75203125 -20.41375 6.42203125 -21.09375 6.08203125 C-16.51794876 1.12491324 -12.96870552 0.42113823 -6.3125 0.1328125 C-4.20812954 0.09961248 -2.10389289 0.05578504 0 0 Z " fill="#3D2ED9" transform="translate(55.09375,101.91796875)"/>
<path d="M0 0 C1.60488281 0.07734375 1.60488281 0.07734375 3.2421875 0.15625 C4.35335938 0.22070312 5.46453125 0.28515625 6.609375 0.3515625 C7.73601563 0.40828125 8.86265625 0.465 10.0234375 0.5234375 C12.80274028 0.66475798 15.5811191 0.81615658 18.359375 0.9765625 C18.359375 1.3065625 18.359375 1.6365625 18.359375 1.9765625 C12.419375 2.3065625 6.479375 2.6365625 0.359375 2.9765625 C0.359375 7.74218491 0.47228988 11.43025126 1.359375 15.9765625 C0.1868619 15.02539116 -0.97849515 14.06539241 -2.140625 13.1015625 C-2.7903125 12.56789063 -3.44 12.03421875 -4.109375 11.484375 C-4.6146875 10.98679687 -5.12 10.48921875 -5.640625 9.9765625 C-5.640625 9.3165625 -5.640625 8.6565625 -5.640625 7.9765625 C-6.630625 7.6465625 -7.620625 7.3165625 -8.640625 6.9765625 C-8.970625 5.3265625 -9.300625 3.6765625 -9.640625 1.9765625 C-6.28147826 -0.06540844 -3.89147963 -0.2069936 0 0 Z " fill="#4031DB" transform="translate(14.640625,47.0234375)"/>
<path d="M0 0 C2.0633113 0.62231644 4.1256169 1.24796785 6.1875 1.875 C7.33605469 2.22304687 8.48460937 2.57109375 9.66796875 2.9296875 C12.50871157 3.84218871 15.24885465 4.84980364 18 6 C16.30401599 14.6358726 9.63588517 20.76202972 3 26 C2.67 25.34 2.34 24.68 2 24 C2.66 24 3.32 24 4 24 C4 23.34 4 22.68 4 22 C4.66 22 5.32 22 6 22 C6 20.02 6 18.04 6 16 C7.65 15.67 9.3 15.34 11 15 C10.67 14.01 10.34 13.02 10 12 C10.33 11.34 10.66 10.68 11 10 C12.32 10 13.64 10 15 10 C15 9.34 15 8.68 15 8 C13.43979133 7.34865075 11.87671421 6.70417036 10.3125 6.0625 C9.44238281 5.70285156 8.57226562 5.34320313 7.67578125 4.97265625 C5.11820735 4.0429688 2.6778677 3.45837375 0 3 C-0.33 3.66 -0.66 4.32 -1 5 C-1.66 5 -2.32 5 -3 5 C-1.125 1.125 -1.125 1.125 0 0 Z " fill="#4332D3" transform="translate(290,109)"/>
<path d="M0 0 C2.19921875 -0.28125 2.19921875 -0.28125 5 0 C7.45703125 1.96875 7.45703125 1.96875 9.8125 4.5 C10.60269531 5.3353125 11.39289062 6.170625 12.20703125 7.03125 C12.79871094 7.6809375 13.39039063 8.330625 14 9 C13.01 9.495 13.01 9.495 12 10 C11.01 9.67 10.02 9.34 9 9 C9 8.01 9 7.02 9 6 C6.69 5.34 4.38 4.68 2 4 C1.67 13.57 1.34 23.14 1 33 C1.66 33.33 2.32 33.66 3 34 C2.01 34 1.02 34 0 34 C-1.08250433 30.48374216 -1.12918238 27.22162829 -1.1328125 23.5546875 C-1.13410156 22.31332031 -1.13539062 21.07195313 -1.13671875 19.79296875 C-1.13285156 18.50003906 -1.12898438 17.20710938 -1.125 15.875 C-1.12886719 14.57433594 -1.13273437 13.27367187 -1.13671875 11.93359375 C-1.13542969 10.69480469 -1.13414063 9.45601562 -1.1328125 8.1796875 C-1.13168457 7.04257324 -1.13055664 5.90545898 -1.12939453 4.73388672 C-1 2 -1 2 0 0 Z " fill="#4336C4" transform="translate(44,10)"/>
<path d="M0 0 C0.66 0 1.32 0 2 0 C2 0.66 2 1.32 2 2 C2.61875 2.28875 3.2375 2.5775 3.875 2.875 C6 4 6 4 8 6 C8.125 8.625 8.125 8.625 8 11 C2.66512519 14.24517358 -3.52009298 13.32819456 -9.5625 13.3125 C-10.80708984 13.32861328 -12.05167969 13.34472656 -13.33398438 13.36132812 C-15.1196582 13.36229492 -15.1196582 13.36229492 -16.94140625 13.36328125 C-18.03138916 13.36626221 -19.12137207 13.36924316 -20.24438477 13.37231445 C-23 13 -23 13 -26 10 C-16.43 10 -6.86 10 3 10 C1.515 5.05 1.515 5.05 0 0 Z " fill="#4332C7" transform="translate(168,130)"/>
<path d="M0 0 C11.55 0 23.1 0 35 0 C35.495 0.99 35.495 0.99 36 2 C20.655 2.495 20.655 2.495 5 3 C6.32 3.99 7.64 4.98 9 6 C9.25 8.6875 9.25 8.6875 9 11 C7.87411986 10.04270084 6.7493285 9.08412105 5.625 8.125 C4.99851562 7.59132813 4.37203125 7.05765625 3.7265625 6.5078125 C2.44163349 5.38567993 1.20628025 4.20628025 0 3 C0 2.01 0 1.02 0 0 Z " fill="#3D2CDA" transform="translate(107,103)"/>
<path d="M0 0 C1.65 0 3.3 0 5 0 C3.68 0.33 2.36 0.66 1 1 C1 5.62 1 10.24 1 15 C3.6915625 14.9690625 3.6915625 14.9690625 6.4375 14.9375 C8.29166122 14.9161878 10.14712498 14.92773498 12 15 C14.12451709 17.12451709 13.18629123 21.90911771 13.2109375 24.85546875 C13.2390201 26.69336807 13.26768464 28.53125857 13.296875 30.36914062 C13.33805436 33.27449162 13.37492885 36.1796805 13.40136719 39.08520508 C13.42906124 41.88397586 13.47494984 44.68199111 13.5234375 47.48046875 C13.52669037 48.34318893 13.52994324 49.20590912 13.53329468 50.09477234 C13.63621693 55.17159222 14.3347354 58.53949474 17 63 C17.68528045 64.65910004 18.35891863 66.32332564 19 68 C14.18367951 63.56391534 11.99668056 60.32979248 11.69702148 53.77636719 C11.66237618 52.11670508 11.63760306 50.45681658 11.62109375 48.796875 C11.60409927 47.91847961 11.5871048 47.04008423 11.56959534 46.1350708 C11.51662086 43.34011944 11.4762151 40.5451824 11.4375 37.75 C11.39360325 34.94060777 11.34698435 32.13133136 11.29469299 29.32208252 C11.26267418 27.57603685 11.23580346 25.82988802 11.21446228 24.0836792 C11.52341636 20.22960905 11.52341636 20.22960905 10 17 C8.31816052 16.76712992 6.6287584 16.58735834 4.9375 16.4375 C3.308125 16.293125 1.67875 16.14875 0 16 C0 10.72 0 5.44 0 0 Z " fill="#4938CF" transform="translate(506,71)"/>
<path d="M0 0 C0.22705078 2.06298828 0.22705078 2.06298828 0.1953125 4.5703125 C0.18886719 5.46621094 0.18242188 6.36210938 0.17578125 7.28515625 C0.15902344 8.22230469 0.14226563 9.15945312 0.125 10.125 C0.11597656 11.06988281 0.10695313 12.01476563 0.09765625 12.98828125 C0.07404522 15.32577292 0.04111516 17.66276123 0 20 C1.65 20.33 3.3 20.66 5 21 C5 21.66 5 22.32 5 23 C3.02 23 1.04 23 -1 23 C-2.2263757 20.54724859 -2.11415314 18.9494219 -2.09765625 16.2109375 C-2.09443359 15.26992187 -2.09121094 14.32890625 -2.08789062 13.359375 C-2.07951172 12.37453125 -2.07113281 11.3896875 -2.0625 10.375 C-2.05798828 9.38242187 -2.05347656 8.38984375 -2.04882812 7.3671875 C-2.03702161 4.91143278 -2.01908582 2.45570894 -2 0 C-6.95 0.33 -11.9 0.66 -17 1 C-17.33 7.93 -17.66 14.86 -18 22 C-18.99 21.67 -19.98 21.34 -21 21 C-20.67 20.67 -20.34 20.34 -20 20 C-19.91314397 18.43827255 -19.89297781 16.87270656 -19.90234375 15.30859375 C-19.90556641 14.36435547 -19.90878906 13.42011719 -19.91210938 12.44726562 C-19.92048828 11.45404297 -19.92886719 10.46082031 -19.9375 9.4375 C-19.94201172 8.44041016 -19.94652344 7.44332031 -19.95117188 6.41601562 C-19.96299993 3.94395151 -19.97948151 1.47200482 -20 -1 C-17.04210873 -1.2210949 -14.08447236 -1.42740245 -11.125 -1.625 C-10.28324219 -1.68945312 -9.44148437 -1.75390625 -8.57421875 -1.8203125 C-7.36572266 -1.89765625 -7.36572266 -1.89765625 -6.1328125 -1.9765625 C-5.01737061 -2.05511475 -5.01737061 -2.05511475 -3.87939453 -2.13525391 C-2 -2 -2 -2 0 0 Z " fill="#493AC8" transform="translate(537,50)"/>
<path d="M0 0 C1.32 0 2.64 0 4 0 C3.67 0.99 3.34 1.98 3 3 C2.95342416 4.62433238 2.96232897 6.25043671 3 7.875 C3.09270764 17.26164834 2.49511659 26.62965524 2 36 C1.34 35.67 0.68 35.34 0 35 C-0.167247 30.176384 -0.32784308 25.35261089 -0.48217773 20.52856445 C-0.53566959 18.88625066 -0.59100431 17.24399584 -0.64819336 15.60180664 C-0.72990479 13.24638594 -0.80506639 10.89083518 -0.87890625 8.53515625 C-0.90594131 7.79660904 -0.93297638 7.05806183 -0.96083069 6.2971344 C-1.0129438 4.53214384 -1.0118612 2.7657199 -1 1 C-0.67 0.67 -0.34 0.34 0 0 Z " fill="#4536CC" transform="translate(99,109)"/>
<path d="M0 0 C1.65 0.33 3.3 0.66 5 1 C5 5.95 5 10.9 5 16 C2.3618463 17.31907685 0.37722213 17.06132406 -2.5625 17 C-4.37460781 16.96229685 -6.18809744 16.95346639 -8 17 C-10.59502136 19.59502136 -9.23008771 26.61636107 -9.24023438 30.13598633 C-9.24987885 32.16204853 -9.28085813 34.18706946 -9.3125 36.21289062 C-9.31765625 37.49744141 -9.3228125 38.78199219 -9.328125 40.10546875 C-9.3374707 41.28262451 -9.34681641 42.45978027 -9.35644531 43.67260742 C-8.96073387 47.3665466 -7.84220467 49.80106935 -6 53 C-9.875 51.125 -9.875 51.125 -11 50 C-11.10085654 47.57506627 -11.13972332 45.17924339 -11.1328125 42.75390625 C-11.13376923 42.02759506 -11.13472595 41.30128387 -11.13571167 40.55296326 C-11.13639344 39.0137422 -11.13453937 37.47451829 -11.13037109 35.93530273 C-11.12503043 33.57594343 -11.13031215 31.21677516 -11.13671875 28.85742188 C-11.13605782 27.36458291 -11.13477634 25.87174407 -11.1328125 24.37890625 C-11.13483673 23.67053116 -11.13686096 22.96215607 -11.13894653 22.23231506 C-11.11495714 17.22991429 -11.11495714 17.22991429 -10 15 C-5.71 15 -1.42 15 3 15 C3 10.38 3 5.76 3 1 C2.01 0.67 1.02 0.34 0 0 Z " fill="#4636D0" transform="translate(546,71)"/>
<path d="M0 0 C0.33 0.66 0.66 1.32 1 2 C0.25 4.0625 0.25 4.0625 -1 6 C-1.99 6.33 -2.98 6.66 -4 7 C-4.61875 7.928125 -5.2375 8.85625 -5.875 9.8125 C-8.02002397 13.03003596 -9.98991273 14.63493143 -13 17 C-15.08091699 19.26785516 -17.05231251 21.61726204 -19 24 C-20.32 23.67 -21.64 23.34 -23 23 C-15.41 15.41 -7.82 7.82 0 0 Z " fill="#4230D7" transform="translate(32,110)"/>
<path d="M0 0 C0.66 -1.98 1.32 -3.96 2 -6 C7.94 -5.67 13.88 -5.34 20 -5 C20 -4.67 20 -4.34 20 -4 C17.54203147 -3.80563509 15.08390706 -3.6192258 12.625 -3.4375 C11.92632812 -3.38142578 11.22765625 -3.32535156 10.5078125 -3.26757812 C5.2265625 -2.88671875 5.2265625 -2.88671875 3 -4 C3 -1.69 3 0.62 3 3 C-0.37462715 2.45276317 -2.08235 1.9451 -5 0 C-5 -0.66 -5 -1.32 -5 -2 C-5.9075 -2.12375 -6.815 -2.2475 -7.75 -2.375 C-11 -3 -11 -3 -12.78125 -4 C-15.77592575 -5.34971301 -18.48173724 -5.42890423 -21.75 -5.625 C-23.50570313 -5.73714844 -23.50570313 -5.73714844 -25.296875 -5.8515625 C-26.18890625 -5.90054688 -27.0809375 -5.94953125 -28 -6 C-28 -6.33 -28 -6.66 -28 -7 C-17.19006204 -8.93582222 -8.64399646 -6.93150659 0 0 Z " fill="#452FD6" transform="translate(423,77)"/>
<path d="M0 0 C1.32 0.33 2.64 0.66 4 1 C4 1.66 4 2.32 4 3 C4.66 3 5.32 3 6 3 C6.33 3.66 6.66 4.32 7 5 C7.99 5.33 8.98 5.66 10 6 C12.6875 8.4375 12.6875 8.4375 15 11 C15 11.66 15 12.32 15 13 C15.99 13.33 16.98 13.66 18 14 C18.680625 15.2065625 18.680625 15.2065625 19.375 16.4375 C21.2836851 19.44734958 22.64965669 20.00395199 26 21 C26 22.65 26 24.3 26 26 C24 24.625 24 24.625 22 23 C22 22.34 22 21.68 22 21 C21.42926758 20.75451416 20.85853516 20.50902832 20.27050781 20.25610352 C17.61211705 18.78541314 15.81369489 17.05616724 13.671875 14.90234375 C12.87265625 14.10119141 12.0734375 13.30003906 11.25 12.47460938 C10.425 11.63736328 9.6 10.80011719 8.75 9.9375 C7.90953125 9.09638672 7.0690625 8.25527344 6.203125 7.38867188 C0 1.14023184 0 1.14023184 0 0 Z " fill="#4636D8" transform="translate(116,114)"/>
<path d="M0 0 C0.33 0 0.66 0 1 0 C1 10.23 1 20.46 1 31 C-5.27 31 -11.54 31 -18 31 C-18 28.69 -18 26.38 -18 24 C-17.34 24.33 -16.68 24.66 -16 25 C-16 26.32 -16 27.64 -16 29 C-10.72 29 -5.44 29 0 29 C0 19.43 0 9.86 0 0 Z " fill="#4337D8" transform="translate(731,112)"/>
<path d="M0 0 C0.33 0 0.66 0 1 0 C0.67 2.31 0.34 4.62 0 7 C0.66 7 1.32 7 2 7 C1.67 8.98 1.34 10.96 1 13 C-0.32 12.67 -1.64 12.34 -3 12 C-4.14889133 15.93905597 -4.52582695 19.93565958 -5 24 C-6.32 24.33 -7.64 24.66 -9 25 C-9 25.99 -9 26.98 -9 28 C-9.66 28 -10.32 28 -11 28 C-8.94661139 21.48529224 -6.50465317 15.21269971 -3.8125 8.9375 C-3.44447266 8.07189453 -3.07644531 7.20628906 -2.69726562 6.31445312 C-1.80127408 4.20829117 -0.90215345 2.10352808 0 0 Z " fill="#4231DC" transform="translate(612,83)"/>
<path d="M0 0 C0.92553743 3.13850064 1.11664647 5.93680778 1.09765625 9.203125 C1.09443359 10.1828125 1.09121094 11.1625 1.08789062 12.171875 C1.07951172 13.18765625 1.07113281 14.2034375 1.0625 15.25 C1.05798828 16.28125 1.05347656 17.3125 1.04882812 18.375 C1.03706088 20.91672573 1.02062011 23.45833319 1 26 C1.66 26 2.32 26 3 26 C3.99 29.96 4.98 33.92 6 38 C-0.31975435 31.68024565 -1.96063815 22.87497425 -2.1875 14.1875 C-2.15012554 9.261546 -1.28284683 4.74195166 0 0 Z " fill="#4234CD" transform="translate(658,93)"/>
<path d="M0 0 C5.00760523 7.51140785 7.95061282 15.235954 10 24 C6.03125 20.40625 6.03125 20.40625 5.75 16.75 C5.8325 15.8425 5.915 14.935 6 14 C5.236875 14 4.47375 14 3.6875 14 C1.79166667 14 -0.10416667 14 -2 14 C-2 12.02 -2 10.04 -2 8 C-1.34 7.67 -0.68 7.34 0 7 C0 8.65 0 10.3 0 12 C0.99 12 1.98 12 3 12 C2.505 10.8553125 2.505 10.8553125 2 9.6875 C1 7 1 7 1 4 C-0.32 3.67 -1.64 3.34 -3 3 C-2.01 3 -1.02 3 0 3 C0 2.01 0 1.02 0 0 Z " fill="#3D2CDE" transform="translate(586,88)"/>
<path d="M0 0 C0.77601563 0.14824219 1.55203125 0.29648438 2.3515625 0.44921875 C4.375 1.3125 4.375 1.3125 5.6484375 3.39453125 C5.88820313 4.02746094 6.12796875 4.66039063 6.375 5.3125 C4.725 4.6525 3.075 3.9925 1.375 3.3125 C1.375 2.6525 1.375 1.9925 1.375 1.3125 C-0.935 1.6425 -3.245 1.9725 -5.625 2.3125 C-5.625 2.9725 -5.625 3.6325 -5.625 4.3125 C-6.615 4.6425 -7.605 4.9725 -8.625 5.3125 C-9.285 4.9825 -9.945 4.6525 -10.625 4.3125 C-10.625 4.9725 -10.625 5.6325 -10.625 6.3125 C-11.285 6.3125 -11.945 6.3125 -12.625 6.3125 C-12.625 9.6125 -12.625 12.9125 -12.625 16.3125 C-15.00813638 12.73779543 -15.27337918 11.52696465 -14.625 7.3125 C-12.57623833 4.05975825 -10.3730947 0.99033264 -6.7109375 -0.4296875 C-4.28420489 -0.72962074 -2.39209517 -0.50001989 0 0 Z " fill="#4232CF" transform="translate(643.625,121.6875)"/>
<path d="M0 0 C0.66 0 1.32 0 2 0 C4 6.75 4 6.75 4 9 C4.99 9 5.98 9 7 9 C7 9.99 7 10.98 7 12 C8.65 11.34 10.3 10.68 12 10 C12 10.99 12 11.98 12 13 C12.99 13.66 13.98 14.32 15 15 C11.99347037 16.32287304 10.71858633 15.91457085 7.5 14.9375 C3.65210789 13.10871687 1.86293598 10.87490684 0 7 C-0.25 3.125 -0.25 3.125 0 0 Z " fill="#3C2CD6" transform="translate(744,51)"/>
<path d="M0 0 C1.10865985 0.91122727 2.21172219 1.82926659 3.3125 2.75 C4.23482422 3.51570312 4.23482422 3.51570312 5.17578125 4.296875 C8.21388726 7.13330802 9.87471091 8.85362728 10.34057617 13.11621094 C10.32486572 14.31020508 10.30915527 15.50419922 10.29296875 16.734375 C10.28330078 18.02988281 10.27363281 19.32539063 10.26367188 20.66015625 C10.23860783 22.02344354 10.21321302 23.38672479 10.1875 24.75 C10.17244518 26.12889184 10.15875817 27.50779935 10.14648438 28.88671875 C10.11111909 32.25820915 10.06175904 35.62890654 10 39 C9.01 39.495 9.01 39.495 8 40 C7.505 38.515 7.505 38.515 7 37 C7.66 37 8.32 37 9 37 C8.86105043 32.91640184 8.71265062 28.83320044 8.5625 24.75 C8.52318359 23.59113281 8.48386719 22.43226563 8.44335938 21.23828125 C8.40146484 20.12324219 8.35957031 19.00820312 8.31640625 17.859375 C8.27974854 16.83295898 8.24309082 15.80654297 8.20532227 14.74902344 C8.02717872 12.36389113 7.67222637 10.28700501 7 8 C6.34 8 5.68 8 5 8 C4.67 7.34 4.34 6.68 4 6 C1.97536745 5.34786708 1.97536745 5.34786708 0 5 C0 3.35 0 1.7 0 0 Z " fill="#4433CD" transform="translate(128,137)"/>
<path d="M0 0 C1.65 0 3.3 0 5 0 C2.68860831 8.61703042 -0.60795466 16.76688023 -4 25 C-5.06434103 21.80697692 -4.96752058 20.19185893 -3.625 17.125 C-2.2466999 13.73563474 -1.46579922 10.64876054 -1 7 C-0.814375 5.72125 -0.62875 4.4425 -0.4375 3.125 C-0.293125 2.09375 -0.14875 1.0625 0 0 Z " fill="#3F2EDC" transform="translate(621,97)"/>
<path d="M0 0 C6.78376359 5.55035203 12.85522968 11.76442027 19 18 C15.23403555 18 14.05334425 17.20124818 11 15 C9.9792412 13.78801726 8.98031428 12.55742353 8 11.3125 C5.7182796 8.39885606 5.7182796 8.39885606 2.125 7.5625 C1.073125 7.7790625 1.073125 7.7790625 0 8 C0.66 6.68 1.32 5.36 2 4 C1.34 4 0.68 4 0 4 C0 2.68 0 1.36 0 0 Z " fill="#402DE1" transform="translate(50,61)"/>
<path d="M0 0 C0.33 0 0.66 0 1 0 C1.28394713 4.68512762 0.40781401 7.07265098 -1 12 C4.28 12 9.56 12 15 12 C15 10.35 15 8.7 15 7 C15.66 7 16.32 7 17 7 C17.33 5.68 17.66 4.36 18 3 C19 6 19 6 16 13 C9.07 13 2.14 13 -5 13 C-3.35 8.71 -1.7 4.42 0 0 Z " fill="#4030C3" transform="translate(582,155)"/>
<path d="M0 0 C1.65 0 3.3 0 5 0 C4.979375 1.216875 4.95875 2.43375 4.9375 3.6875 C4.93175884 6.91977322 5.21233685 9.84934741 6 13 C6.66 13 7.32 13 8 13 C8 14.65 8 16.3 8 18 C8.66 18 9.32 18 10 18 C10.33 20.64 10.66 23.28 11 26 C8.16484107 21.7472616 6.37542425 17.12912001 4.375 12.4375 C3.95476563 11.46619141 3.53453125 10.49488281 3.1015625 9.49414062 C2.70453125 8.56666016 2.3075 7.63917969 1.8984375 6.68359375 C1.53411621 5.83337646 1.16979492 4.98315918 0.79443359 4.10717773 C0 2 0 2 0 0 Z " fill="#4235CA" transform="translate(567,90)"/>
<path d="M0 0 C6.6 0 13.2 0 20 0 C20 0.66 20 1.32 20 2 C19.11699219 1.95359375 18.23398437 1.9071875 17.32421875 1.859375 C9.8419091 1.63434313 4.0178642 2.18173833 -2.890625 5.125 C-5 6 -5 6 -7 6 C-6.34 4.35 -5.68 2.7 -5 1 C-3.35 1.33 -1.7 1.66 0 2 C0 1.34 0 0.68 0 0 Z " fill="#3E2ECE" transform="translate(251,61)"/>
<path d="M0 0 C0.66 0.66 1.32 1.32 2 2 C-1.43596885 2.32212208 -3.28848028 1.88001263 -6.53125 0.53125 C-11.48086173 -1.38434493 -16.23925366 -1.55368741 -21.5 -1.6875 C-22.4178125 -1.72166016 -23.335625 -1.75582031 -24.28125 -1.79101562 C-26.5207109 -1.87266264 -28.7598215 -1.94207538 -31 -2 C-31 -2.33 -31 -2.66 -31 -3 C-20.6979899 -4.81800178 -9.70746412 -4.11533469 0 0 Z " fill="#4234CB" transform="translate(282,45)"/>
<path d="M0 0 C3 1 3 1 4.16796875 3.14453125 C4.50441406 4.02496094 4.84085938 4.90539062 5.1875 5.8125 C5.53167969 6.68519531 5.87585938 7.55789062 6.23046875 8.45703125 C7 11 7 11 7 15 C7.99 15.33 8.98 15.66 10 16 C9.67 16.66 9.34 17.32 9 18 C9.66 18.33 10.32 18.66 11 19 C11 20.32 11 21.64 11 23 C10.34 23 9.68 23 9 23 C7.49414477 19.54418685 5.99631711 16.08495247 4.5 12.625 C4.07074219 11.64015625 3.64148438 10.6553125 3.19921875 9.640625 C2.79316406 8.69960937 2.38710938 7.75859375 1.96875 6.7890625 C1.59169922 5.91975098 1.21464844 5.05043945 0.82617188 4.15478516 C0 2 0 2 0 0 Z " fill="#4435D0" transform="translate(578,116)"/>
<path d="M0 0 C1.9375 0.6875 1.9375 0.6875 4 2 C4.495 4.475 4.495 4.475 5 7 C-6.55 6.67 -18.1 6.34 -30 6 C-30 5.67 -30 5.34 -30 5 C-19.44 4.67 -8.88 4.34 2 4 C1.34 2.68 0.68 1.36 0 0 Z " fill="#4A3EC3" transform="translate(69,81)"/>
<path d="M0 0 C0.66 0.33 1.32 0.66 2 1 C-3.9883533 11.71600064 -3.9883533 11.71600064 -9.8125 13.375 C-10.864375 13.58125 -11.91625 13.7875 -13 14 C-10.79975302 9.4619906 -7.6302054 6.73412037 -3.83984375 3.55078125 C-1.9231334 1.97976361 -1.9231334 1.97976361 0 0 Z " fill="#4430DA" transform="translate(141,51)"/>
<path d="M0 0 C0 0.66 0 1.32 0 2 C-1.32 2 -2.64 2 -4 2 C-4 2.66 -4 3.32 -4 4 C-4.66 4 -5.32 4 -6 4 C-6 4.66 -6 5.32 -6 6 C-6.66 6 -7.32 6 -8 6 C-8 6.66 -8 7.32 -8 8 C-8.99 8 -9.98 8 -11 8 C-11.33 14.27 -11.66 20.54 -12 27 C-12.33 27 -12.66 27 -13 27 C-14.03314266 8.92000336 -14.03314266 8.92000336 -10.25 4.5 C-7.15209972 1.68372702 -4.22025088 0 0 0 Z " fill="#4533D7" transform="translate(479,41)"/>
<path d="M0 0 C1.18613892 0.00785522 1.18613892 0.00785522 2.39624023 0.01586914 C3.67724609 0.02070312 3.67724609 0.02070312 4.98413086 0.02563477 C5.88196289 0.03401367 6.77979492 0.04239258 7.70483398 0.05102539 C8.6065332 0.05553711 9.50823242 0.06004883 10.43725586 0.06469727 C12.67234712 0.07652315 14.90730835 0.09300319 17.14233398 0.11352539 C17.14233398 1.10352539 17.14233398 2.09352539 17.14233398 3.11352539 C11.20233398 2.78352539 5.26233398 2.45352539 -0.85766602 2.11352539 C-0.85766602 4.09352539 -0.85766602 6.07352539 -0.85766602 8.11352539 C-1.84766602 8.11352539 -2.83766602 8.11352539 -3.85766602 8.11352539 C-2.84718051 0.17399644 -2.84718051 0.17399644 0 0 Z " fill="#4836C8" transform="translate(715.857666015625,70.886474609375)"/>
<path d="M0 0 C5.364584 0.3251263 8.41169326 3.31307172 12 7 C14.44236899 9.92322527 16.75206274 12.92531378 19 16 C18.67 16.66 18.34 17.32 18 18 C17.01 17.34 16.02 16.68 15 16 C15 15.01 15 14.02 15 13 C14.34 13 13.68 13 13 13 C11.84728475 11.75146711 10.75104998 10.45031062 9.6875 9.125 C6.96853075 5.8951597 5.0682659 4.31620367 1 3 C0.67 2.01 0.34 1.02 0 0 Z " fill="#4434D2" transform="translate(288,50)"/>
<path d="M0 0 C3.79303725 1.00193437 6.71536341 1.81024227 10 4 C10 4.66 10 5.32 10 6 C13.79588866 5.45773019 15.47211993 3.79872437 18 1 C18 1.99 18 2.98 18 4 C17.34 4 16.68 4 16 4 C16 4.99 16 5.98 16 7 C13.5625 7.875 13.5625 7.875 10 8 C6.22084108 6.0854756 1.93982082 3.87964165 0 0 Z " fill="#4031D5" transform="translate(668,135)"/>
<path d="M0 0 C0.66 0 1.32 0 2 0 C2 0.66 2 1.32 2 2 C2.61875 2.28875 3.2375 2.5775 3.875 2.875 C6 4 6 4 8 6 C8.125 8.625 8.125 8.625 8 11 C6.68 11.33 5.36 11.66 4 12 C2.66666667 8 1.33333333 4 0 0 Z " fill="#4532D2" transform="translate(168,130)"/>
<path d="M0 0 C2.31 0.66 4.62 1.32 7 2 C7.06058594 2.59554687 7.12117187 3.19109375 7.18359375 3.8046875 C8.34960448 6.94008476 10.16108407 7.56615206 13.0625 9.125 C14.73732797 10.03170911 16.39239523 10.97883545 18 12 C18 12.66 18 13.32 18 14 C10.38700138 11.62093793 4.73040303 6.20865397 0 0 Z " fill="#4435CE" transform="translate(221,125)"/>
<path d="M0 0 C1.65 0 3.3 0 5 0 C3.68 0.33 2.36 0.66 1 1 C1 5.62 1 10.24 1 15 C3.6915625 14.9690625 3.6915625 14.9690625 6.4375 14.9375 C8.29166122 14.9161878 10.14712498 14.92773498 12 15 C13 16 13 16 13.09765625 18.06640625 C13.08605469 18.89011719 13.07445312 19.71382812 13.0625 20.5625 C13.05347656 21.38878906 13.04445313 22.21507813 13.03515625 23.06640625 C13.02355469 23.70449219 13.01195312 24.34257813 13 25 C12.67 25 12.34 25 12 25 C11.855625 23.865625 11.71125 22.73125 11.5625 21.5625 C11.38828522 18.19222799 11.38828522 18.19222799 10 17 C8.31816052 16.76712992 6.6287584 16.58735834 4.9375 16.4375 C3.308125 16.293125 1.67875 16.14875 0 16 C0 10.72 0 5.44 0 0 Z " fill="#4234BA" transform="translate(506,71)"/>
<path d="M0 0 C2.19921875 -0.28125 2.19921875 -0.28125 5 0 C7.45703125 1.96875 7.45703125 1.96875 9.8125 4.5 C10.60269531 5.3353125 11.39289062 6.170625 12.20703125 7.03125 C12.79871094 7.6809375 13.39039063 8.330625 14 9 C13.01 9.495 13.01 9.495 12 10 C11.01 9.67 10.02 9.34 9 9 C9 8.01 9 7.02 9 6 C6.69 5.34 4.38 4.68 2 4 C2 3.34 2 2.68 2 2 C1.34 2 0.68 2 0 2 C0 1.34 0 0.68 0 0 Z " fill="#4335D6" transform="translate(44,10)"/>
<path d="M0 0 C2.26921536 -0.13489391 4.5407067 -0.23193995 6.8125 -0.3125 C8.70935547 -0.39951172 8.70935547 -0.39951172 10.64453125 -0.48828125 C14 0 14 0 16.01171875 2.39453125 C16.50091797 3.68423828 16.50091797 3.68423828 17 5 C16.67 5.66 16.34 6.32 16 7 C15.34 6.67 14.68 6.34 14 6 C14 5.01 14 4.02 14 3 C7.07 2.505 7.07 2.505 0 2 C0 1.34 0 0.68 0 0 Z " fill="#4B35C9" transform="translate(565,71)"/>
<path d="M0 0 C0.66 0 1.32 0 2 0 C2.41612253 2.76916073 2.80847753 5.53823496 3.1875 8.3125 C3.36829102 9.49102539 3.36829102 9.49102539 3.55273438 10.69335938 C3.65263672 11.45068359 3.75253906 12.20800781 3.85546875 12.98828125 C4.00471802 14.03302612 4.00471802 14.03302612 4.15698242 15.09887695 C4 17 4 17 2.5090332 18.75073242 C2.01105225 19.16299072 1.51307129 19.57524902 1 20 C-0.05619003 15.71702469 -0.11702092 11.57014354 -0.0625 7.1875 C-0.05798828 6.49462891 -0.05347656 5.80175781 -0.04882812 5.08789062 C-0.03713156 3.39188932 -0.01919924 1.69593297 0 0 Z " fill="#4A2EDD" transform="translate(746,104)"/>
<path d="M0 0 C1 2 1 2 0.47094727 3.87939453 C0.17244873 4.62302246 -0.1260498 5.36665039 -0.43359375 6.1328125 C-0.75263672 6.93847656 -1.07167969 7.74414062 -1.40039062 8.57421875 C-1.91375977 9.83685547 -1.91375977 9.83685547 -2.4375 11.125 C-2.77587891 11.97449219 -3.11425781 12.82398437 -3.46289062 13.69921875 C-4.30176957 15.80232371 -5.14771125 17.90230155 -6 20 C-6.33 20 -6.66 20 -7 20 C-7.25 14.375 -7.25 14.375 -5 11 C-4.61500109 9.34450469 -4.27206865 7.6777567 -4 6 C-3.34 6 -2.68 6 -2 6 C-2 4.35 -2 2.7 -2 1 C-1.34 0.67 -0.68 0.34 0 0 Z " fill="#4132CB" transform="translate(633,77)"/>
<path d="M0 0 C1.32 0 2.64 0 4 0 C6 3 6 3 6 6 C7.32 5.67 8.64 5.34 10 5 C10 6.65 10 8.3 10 10 C10.99 10.33 11.98 10.66 13 11 C8.17965738 10.58682778 6.09007389 8.61980085 3 5 C3 4.34 3 3.68 3 3 C2.01 2.67 1.02 2.34 0 2 C0 1.34 0 0.68 0 0 Z " fill="#483AD9" transform="translate(123,167)"/>
<path d="M0 0 C1.98 0 3.96 0 6 0 C6.433125 0.886875 6.86625 1.77375 7.3125 2.6875 C8.76784817 5.54429455 10.31627474 8.27396863 12 11 C8.57472113 9.52651292 6.35044942 7.59092154 3.75 4.9375 C3.04359375 4.22464844 2.3371875 3.51179687 1.609375 2.77734375 C0 1 0 1 0 0 Z " fill="#4D40DD" transform="translate(111,156)"/>
<path d="M0 0 C0 3 0 3 -1.57421875 4.68359375 C-2.27160156 5.26238281 -2.96898437 5.84117188 -3.6875 6.4375 C-4.41324219 7.0459375 -5.13898438 7.654375 -5.88671875 8.28125 C-10.92432432 12.37837838 -10.92432432 12.37837838 -13 14 C-12.67 12.35 -12.34 10.7 -12 9 C-11.01 9 -10.02 9 -9 9 C-9 8.34 -9 7.68 -9 7 C-8.34 7 -7.68 7 -7 7 C-7 6.34 -7 5.68 -7 5 C-6.34 5 -5.68 5 -5 5 C-5 4.34 -5 3.68 -5 3 C-4.34 3 -3.68 3 -3 3 C-3 2.34 -3 1.68 -3 1 C-2.01 0.67 -1.02 0.34 0 0 Z " fill="#4130D6" transform="translate(136,44)"/>
<path d="M0 0 C1.08667969 0.01804688 2.17335937 0.03609375 3.29296875 0.0546875 C4.54013672 0.08949219 4.54013672 0.08949219 5.8125 0.125 C5.1525 1.445 4.4925 2.765 3.8125 4.125 C-0.4775 3.465 -4.7675 2.805 -9.1875 2.125 C-5.66070901 -0.22619399 -4.15870515 -0.08943452 0 0 Z " fill="#402FE7" transform="translate(253.1875,42.875)"/>
<path d="M0 0 C-3.64100419 3.64100419 -9.03986827 4.19308862 -14 5 C-17.40424926 4.96472281 -20.65391348 4.61443624 -24 4 C-24 3.67 -24 3.34 -24 3 C-19.38 3 -14.76 3 -10 3 C-10 2.34 -10 1.68 -10 1 C-6.59437148 0.22157062 -3.49234244 -0.09978121 0 0 Z " fill="#3F31CA" transform="translate(706,140)"/>
<path d="M0 0 C4.875 1.75 4.875 1.75 6 4 C6.1875 7.5 6.1875 7.5 6 11 C5.34 11.66 4.68 12.32 4 13 C4 10.03 4 7.06 4 4 C2.68 4 1.36 4 0 4 C0 2.68 0 1.36 0 0 Z " fill="#3E2ECF" transform="translate(761,47)"/>
<path d="M0 0 C0.33 0.99 0.66 1.98 1 3 C-5.24273068 5.4793824 -10.28299653 6.31985731 -17 6 C-17 5.34 -17 4.68 -17 4 C-15.78763672 3.94392578 -15.78763672 3.94392578 -14.55078125 3.88671875 C-13.48214844 3.82097656 -12.41351562 3.75523438 -11.3125 3.6875 C-10.25675781 3.62949219 -9.20101562 3.57148437 -8.11328125 3.51171875 C-4.76990036 2.96217936 -2.76473738 1.91325982 0 0 Z " fill="#4838CF" transform="translate(706,123)"/>
<path d="M0 0 C1.71689148 1.14459432 3.4177428 2.31647181 5.0625 3.5625 C6.93965787 5.04223949 6.93965787 5.04223949 9 6 C9 7.65 9 9.3 9 11 C7.87411986 10.04270084 6.7493285 9.08412105 5.625 8.125 C4.99851562 7.59132813 4.37203125 7.05765625 3.7265625 6.5078125 C2.44163349 5.38567993 1.20628025 4.20628025 0 3 C0 2.01 0 1.02 0 0 Z " fill="#4839CE" transform="translate(107,103)"/>
<path d="M0 0 C1.65 0.33 3.3 0.66 5 1 C5 5.95 5 10.9 5 16 C2.47946405 17.26026798 1.1457902 16.91874445 -1.625 16.5625 C-2.44226563 16.46066406 -3.25953125 16.35882813 -4.1015625 16.25390625 C-4.72804688 16.17011719 -5.35453125 16.08632812 -6 16 C-6 15.67 -6 15.34 -6 15 C-3.03 15 -0.06 15 3 15 C3 10.38 3 5.76 3 1 C2.01 0.67 1.02 0.34 0 0 Z " fill="#493BB8" transform="translate(546,71)"/>
<path d="M0 0 C7.48291572 6.15034169 7.48291572 6.15034169 10 10 C9.34 10 8.68 10 8 10 C8 10.99 8 11.98 8 13 C7.34 13 6.68 13 6 13 C6.33 11.35 6.66 9.7 7 8 C6.34 8 5.68 8 5 8 C5 7.34 5 6.68 5 6 C4.360625 5.7525 3.72125 5.505 3.0625 5.25 C1 4 1 4 0.37109375 1.921875 C0.24863281 1.28765625 0.12617187 0.6534375 0 0 Z " fill="#4233D6" transform="translate(118,127)"/>
<path d="M0 0 C0.66 0 1.32 0 2 0 C2.66 1.65 3.32 3.3 4 5 C5.32 5 6.64 5 8 5 C8 7.31 8 9.62 8 12 C4.72257902 8.89973691 2.06895163 6.02901106 0 2 C0 1.34 0 0.68 0 0 Z " fill="#4335D5" transform="translate(371,123)"/>
<path d="M0 0 C2.67289025 3.87671106 2.01875653 7.79267603 1.625 12.25 C1.53992188 13.36761719 1.53992188 13.36761719 1.453125 14.5078125 C1.31223742 16.33935108 1.15748116 18.16981352 1 20 C0.67 20 0.34 20 0 20 C-0.19594676 16.85463232 -0.3803401 13.70869386 -0.5625 10.5625 C-0.61857422 9.66466797 -0.67464844 8.76683594 -0.73242188 7.84179688 C-0.78076172 6.98779297 -0.82910156 6.13378906 -0.87890625 5.25390625 C-0.9260376 4.46314697 -0.97316895 3.6723877 -1.02172852 2.85766602 C-1 1 -1 1 0 0 Z " fill="#4132DA" transform="translate(747,83)"/>
<path d="M0 0 C0 0.99 0 1.98 0 3 C-1.65 3.66 -3.3 4.32 -5 5 C-5 6.32 -5 7.64 -5 9 C-5.66 9 -6.32 9 -7 9 C-7 8.34 -7 7.68 -7 7 C-7.99 6.67 -8.98 6.34 -10 6 C-8.71283353 4.99421411 -7.42011342 3.99553202 -6.125 3 C-5.40570313 2.443125 -4.68640625 1.88625 -3.9453125 1.3125 C-2 0 -2 0 0 0 Z " fill="#4330D6" transform="translate(349,73)"/>
<path d="M0 0 C0.33 1.32 0.66 2.64 1 4 C0.34 4 -0.32 4 -1 4 C-1.226875 4.61875 -1.45375 5.2375 -1.6875 5.875 C-3.37929835 8.61410209 -4.99244161 9.05024472 -8 10 C-5.83735988 6.01618925 -3.28788824 3.11016455 0 0 Z " fill="#3E30D3" transform="translate(228,53)"/>
<path d="M0 0 C0.66 0.33 1.32 0.66 2 1 C1.67 1.66 1.34 2.32 1 3 C2.32 3 3.64 3 5 3 C5.33 3.66 5.66 4.32 6 5 C7.89533342 5.46523063 7.89533342 5.46523063 10.0625 5.625 C11.361875 5.74875 12.66125 5.8725 14 6 C14 6.33 14 6.66 14 7 C4.98468271 7.63019694 4.98468271 7.63019694 0.875 5 C0.25625 4.34 -0.3625 3.68 -1 3 C-0.67 2.01 -0.34 1.02 0 0 Z " fill="#4130D1" transform="translate(632,137)"/>
<path d="M0 0 C1.65 0 3.3 0 5 0 C5.33 1.65 5.66 3.3 6 5 C-0.52307692 4.38461538 -0.52307692 4.38461538 -2.9375 2.4375 C-3.288125 1.963125 -3.63875 1.48875 -4 1 C-2.68 1.33 -1.36 1.66 0 2 C0 1.34 0 0.68 0 0 Z " fill="#412EE5" transform="translate(387,137)"/>
<path d="M0 0 C2.0625 0.4375 2.0625 0.4375 4 1 C3.67 1.66 3.34 2.32 3 3 C3.309375 3.928125 3.61875 4.85625 3.9375 5.8125 C4.93578404 8.80735213 5.18320723 10.88547704 5 14 C3.1727089 11.25906335 2.06301822 8.86174676 0.875 5.8125 C0.52179687 4.91144531 0.16859375 4.01039062 -0.1953125 3.08203125 C-0.46085938 2.39496094 -0.72640625 1.70789063 -1 1 C-0.67 0.67 -0.34 0.34 0 0 Z " fill="#4739C9" transform="translate(560,71)"/>
<path d="M0 0 C0.66 2.97 1.32 5.94 2 9 C-3.46875 4.5078125 -3.46875 4.5078125 -5 3 C-5 2.34 -5 1.68 -5 1 C-2 0 -2 0 0 0 Z " fill="#4634D8" transform="translate(14,54)"/>
<path d="M0 0 C0 0.66 0 1.32 0 2 C-0.7425 2.2475 -1.485 2.495 -2.25 2.75 C-5.20124062 4.09147301 -6.84814974 5.60905526 -9 8 C-10.32 7.34 -11.64 6.68 -13 6 C-11.40089132 4.99193149 -9.79551738 3.99379615 -8.1875 3 C-7.29417969 2.443125 -6.40085938 1.88625 -5.48046875 1.3125 C-3 0 -3 0 0 0 Z " fill="#4534D7" transform="translate(244,45)"/>
<path d="M0 0 C-0.625 1.875 -0.625 1.875 -2 4 C-5.125 5.25 -5.125 5.25 -8 6 C-8 4.35 -8 2.7 -8 1 C-5.23735711 0.40267181 -2.83967231 0 0 0 Z " fill="#3B2CE3" transform="translate(424,135)"/>
<path d="M0 0 C1.12588014 0.95729916 2.2506715 1.91587895 3.375 2.875 C4.00148437 3.40867188 4.62796875 3.94234375 5.2734375 4.4921875 C6.55836651 5.61432007 7.79371975 6.79371975 9 8 C8.625 10.125 8.625 10.125 8 12 C7.67 10.68 7.34 9.36 7 8 C6.34 8 5.68 8 5 8 C4.67 7.34 4.34 6.68 4 6 C1.97536745 5.34786708 1.97536745 5.34786708 0 5 C0 3.35 0 1.7 0 0 Z " fill="#4838D7" transform="translate(128,137)"/>
<path d="M0 0 C0.66 0.33 1.32 0.66 2 1 C1.92909865 4.07454047 1.7524935 7.01122299 1 10 C-1.5625 12.0625 -1.5625 12.0625 -4 13 C-3.71125 12.34 -3.4225 11.68 -3.125 11 C-1.76562701 7.37500535 -0.89375361 3.76653307 0 0 Z " fill="#4132D4" transform="translate(425,109)"/>
<path d="M0 0 C7.57142857 4.14285714 7.57142857 4.14285714 10 7 C9.67 7.66 9.34 8.32 9 9 C6.525 8.01 6.525 8.01 4 7 C4 6.34 4 5.68 4 5 C3.34 4.67 2.68 4.34 2 4 C1.67 4.66 1.34 5.32 1 6 C0.67 4.02 0.34 2.04 0 0 Z " fill="#4433D2" transform="translate(36,48)"/>
<path d="M0 0 C1.32 0.33 2.64 0.66 4 1 C4 1.66 4 2.32 4 3 C4.61875 3.2475 5.2375 3.495 5.875 3.75 C8.35068687 5.20628639 8.95125002 6.37812506 10 9 C7.00667261 8.0022242 6.05233685 7.2477975 4 5 C3.01 5.33 2.02 5.66 1 6 C1.33 4.68 1.66 3.36 2 2 C1.34 2 0.68 2 0 2 C0 1.34 0 0.68 0 0 Z " fill="#3E31D6" transform="translate(158,121)"/>
<path d="M0 0 C0.33 0 0.66 0 1 0 C1.3125 2.25 1.3125 2.25 1 5 C-1.5 7.3125 -1.5 7.3125 -4 9 C-4.6875 6.6875 -4.6875 6.6875 -5 4 C-3.5625 2.1875 -3.5625 2.1875 -2 1 C-1.67 1.66 -1.34 2.32 -1 3 C-0.67 2.01 -0.34 1.02 0 0 Z " fill="#3F2DDB" transform="translate(175,49)"/>
<path d="M0 0 C0.33 0 0.66 0 1 0 C1.41733821 6.05140408 1.10415132 9.17158669 -3 14 C-3.66 14 -4.32 14 -5 14 C-5 13.01 -5 12.02 -5 11 C-4.54625 10.608125 -4.0925 10.21625 -3.625 9.8125 C-1.05726102 6.94848345 -0.79445847 3.72784358 0 0 Z " fill="#4334CA" transform="translate(651,129)"/>
<path d="M0 0 C3.16115776 1.36983503 3.9927092 1.9890638 6 5 C3.36 5 0.72 5 -2 5 C-2 4.01 -2 3.02 -2 2 C-1.34 2 -0.68 2 0 2 C0 1.34 0 0.68 0 0 Z " fill="#3D2BE1" transform="translate(112,122)"/>
<path d="M0 0 C3.63 0 7.26 0 11 0 C10.67 1.98 10.34 3.96 10 6 C9.67 4.68 9.34 3.36 9 2 C5.7 2 2.4 2 -1 2 C-0.67 1.34 -0.34 0.68 0 0 Z " fill="#4B3FBF" transform="translate(625,71)"/>
<path d="M0 0 C0.66 1.32 1.32 2.64 2 4 C-3.2734375 7.22265625 -3.2734375 7.22265625 -5 8 C-5.66 7.67 -6.32 7.34 -7 7 C-4.69 4.69 -2.38 2.38 0 0 Z " fill="#402ED5" transform="translate(109,35)"/>
<path d="M0 0 C1 3 1 3 1 5 C0.01 5 -0.98 5 -2 5 C-2.33 6.32 -2.66 7.64 -3 9 C-3.33 6.69 -3.66 4.38 -4 2 C-2.68 1.34 -1.36 0.68 0 0 Z " fill="#3F2EE0" transform="translate(373,113)"/>
<path d="M0 0 C3.05906926 2.51066469 3.75191278 4.90059933 4.6875 8.6875 C5.06455078 10.17830078 5.06455078 10.17830078 5.44921875 11.69921875 C5.63097656 12.45847656 5.81273437 13.21773437 6 14 C2.03125 10.40625 2.03125 10.40625 1.75 6.75 C1.8325 5.8425 1.915 4.935 2 4 C1.34 4 0.68 4 0 4 C0 2.68 0 1.36 0 0 Z " fill="#3C30CD" transform="translate(590,98)"/>
<path d="M0 0 C0 0.66 0 1.32 0 2 C-1.32 2 -2.64 2 -4 2 C-4.33 2.99 -4.66 3.98 -5 5 C-7.31 5.33 -9.62 5.66 -12 6 C-8.43530515 2.03922794 -5.41936579 0 0 0 Z " fill="#4334D1" transform="translate(394,71)"/>
<path d="M0 0 C4.95 0 9.9 0 15 0 C15 0.33 15 0.66 15 1 C10.71 1 6.42 1 2 1 C2 1.99 2 2.98 2 4 C1.01 4 0.02 4 -1 4 C-0.67 2.68 -0.34 1.36 0 0 Z " fill="#402DE7" transform="translate(520,50)"/>
<path d="M0 0 C0.66 0.33 1.32 0.66 2 1 C1.24172908 2.17487036 0.46792245 3.33972592 -0.3125 4.5 C-0.74175781 5.1496875 -1.17101563 5.799375 -1.61328125 6.46875 C-2.07089844 6.9740625 -2.52851562 7.479375 -3 8 C-3.99 8 -4.98 8 -6 8 C-6 8.66 -6 9.32 -6 10 C-6.66 10 -7.32 10 -8 10 C-7.67 9.01 -7.34 8.02 -7 7 C-6.34 7 -5.68 7 -5 7 C-4.67 6.01 -4.34 5.02 -4 4 C-2.70644173 2.62804426 -1.37701298 1.28817344 0 0 Z " fill="#4B40C3" transform="translate(64,125)"/>
<path d="M0 0 C1.32 0 2.64 0 4 0 C3.67 0.99 3.34 1.98 3 3 C2.931009 5.06145107 2.91532273 7.12501401 2.9375 9.1875 C2.94652344 10.27417969 2.95554687 11.36085938 2.96484375 12.48046875 C2.97644531 13.31191406 2.98804687 14.14335938 3 15 C1.08697693 11.73386305 0.64325339 9.00554752 0.375 5.25 C0.30023438 4.26515625 0.22546875 3.2803125 0.1484375 2.265625 C0.09945312 1.51796875 0.05046875 0.7703125 0 0 Z " fill="#3928D9" transform="translate(99,109)"/>
<path d="M0 0 C0 3 0 3 -1.3125 4.38671875 C-2.875 5.59114583 -4.4375 6.79557292 -6 8 C-5.67 5.69 -5.34 3.38 -5 1 C-3.35 0.67 -1.7 0.34 0 0 Z " fill="#4230DA" transform="translate(73,152)"/>
<path d="M0 0 C0.66 0.33 1.32 0.66 2 1 C0.35 5.29 -1.3 9.58 -3 14 C-4.00516105 9.97935581 -4.08769462 9.40425399 -2.625 5.875 C-2.34914063 5.19179687 -2.07328125 4.50859375 -1.7890625 3.8046875 C-1.22762922 2.52061734 -0.62674453 1.25348905 0 0 Z " fill="#4032C4" transform="translate(620,108)"/>
<path d="M0 0 C1.60379341 -0.05416188 3.20811406 -0.09286638 4.8125 -0.125 C5.70582031 -0.14820312 6.59914063 -0.17140625 7.51953125 -0.1953125 C10 0 10 0 13 2 C13 2.66 13 3.32 13 4 C8.71 3.01 4.42 2.02 0 1 C0 0.67 0 0.34 0 0 Z " fill="#4433D2" transform="translate(693,86)"/>
<path d="M0 0 C1.29409592 0.45142881 2.58521059 0.91141021 3.875 1.375 C4.95394531 1.75785156 4.95394531 1.75785156 6.0546875 2.1484375 C8 3 8 3 10 5 C6.63295715 5.2295711 4.58629732 5.33943529 1.625 3.625 C1.08875 3.08875 0.5525 2.5525 0 2 C0 1.34 0 0.68 0 0 Z " fill="#4635D1" transform="translate(697,70)"/>
<path d="M0 0 C0.99 0.33 1.98 0.66 3 1 C3 1.66 3 2.32 3 3 C2.34 3 1.68 3 1 3 C0.67 3.99 0.34 4.98 0 6 C-0.99 6.33 -1.98 6.66 -3 7 C-2.67 5.35 -2.34 3.7 -2 2 C-1.34 2 -0.68 2 0 2 C0 1.34 0 0.68 0 0 Z " fill="#3B2CDA" transform="translate(166,59)"/>
<path d="M0 0 C1.32 0 2.64 0 4 0 C4 0.66 4 1.32 4 2 C5.65 2 7.3 2 9 2 C9 2.66 9 3.32 9 4 C8.01 4.33 7.02 4.66 6 5 C1.33333333 2.66666667 1.33333333 2.66666667 0 0 Z " fill="#422DE5" transform="translate(706,90)"/>
<path d="M0 0 C2.0625 0.4375 2.0625 0.4375 4 1 C2.68 3.31 1.36 5.62 0 8 C-0.33 8 -0.66 8 -1 8 C-1.04241723 5.66705225 -1.04092937 3.33297433 -1 1 C-0.67 0.67 -0.34 0.34 0 0 Z " fill="#4333D5" transform="translate(390,91)"/>
<path d="M0 0 C5.875 3.625 5.875 3.625 7 7 C6.01 7.495 6.01 7.495 5 8 C5 7.34 5 6.68 5 6 C3.68 5.67 2.36 5.34 1 5 C0.67 3.35 0.34 1.7 0 0 Z " fill="#422BDF" transform="translate(72,35)"/>
<path d="M0 0 C2.64752004 2.57784846 4.94432065 4.91648098 7 8 C6.01 8 5.02 8 4 8 C4 7.34 4 6.68 4 6 C2.68 5.67 1.36 5.34 0 5 C0 3.35 0 1.7 0 0 Z " fill="#4232D7" transform="translate(65,27)"/>
<path d="M0 0 C1.27514492 3.82543475 0.52740413 5.33423008 -1 9 C-2.578125 10.6875 -2.578125 10.6875 -4 12 C-3.52309796 10.37433394 -3.04340334 8.74948689 -2.5625 7.125 C-2.29566406 6.22007812 -2.02882813 5.31515625 -1.75390625 4.3828125 C-1 2 -1 2 0 0 Z " fill="#4739C2" transform="translate(587,143)"/>
<path d="M0 0 C0.6875 1.8125 0.6875 1.8125 1 4 C-0.4375 5.75 -0.4375 5.75 -2 7 C-2.99 6.01 -3.98 5.02 -5 4 C-4.01 3.01 -3.02 2.02 -2 1 C-1.67 1.33 -1.34 1.66 -1 2 C-0.67 1.34 -0.34 0.68 0 0 Z " fill="#4335D0" transform="translate(600,111)"/>
<path d="M0 0 C1 2 1 2 0.4375 4 C-1.57302108 6.79724672 -3.74418077 7.15065585 -7 8 C-6.02133662 6.85373678 -5.04205413 5.70800212 -4.0625 4.5625 C-3.51722656 3.92441406 -2.97195312 3.28632812 -2.41015625 2.62890625 C-1.63204305 1.73008851 -0.84063472 0.84063472 0 0 Z " fill="#4B2FC5" transform="translate(32,110)"/>
<path d="M0 0 C-0.99 0.66 -1.98 1.32 -3 2 C-2.34 2.66 -1.68 3.32 -1 4 C-2.32 4.33 -3.64 4.66 -5 5 C-5 4.34 -5 3.68 -5 3 C-5.66 3 -6.32 3 -7 3 C-6.67 2.01 -6.34 1.02 -6 0 C-3 -1 -3 -1 0 0 Z " fill="#4533D0" transform="translate(623,72)"/>
<path d="M0 0 C1.32 0 2.64 0 4 0 C2.60667426 3.36720387 1.0210714 4.9859524 -2 7 C-2 6.01 -2 5.02 -2 4 C-1.34 4 -0.68 4 0 4 C0 2.68 0 1.36 0 0 Z " fill="#3F2FD4" transform="translate(157,67)"/>
<path d="M0 0 C4.875 2.75 4.875 2.75 6 5 C4.02 5 2.04 5 0 5 C0 3.35 0 1.7 0 0 Z " fill="#3E2CE3" transform="translate(44,56)"/>
<path d="M0 0 C1.98 0 3.96 0 6 0 C6.33 1.32 6.66 2.64 7 4 C4.625 3.6875 4.625 3.6875 2 3 C1.34 2.01 0.68 1.02 0 0 Z " fill="#4738E1" transform="translate(111,156)"/>
<path d="M0 0 C0.66 0 1.32 0 2 0 C2 0.66 2 1.32 2 2 C2.66 2 3.32 2 4 2 C4.66 3.98 5.32 5.96 6 8 C5.01 8 4.02 8 3 8 C2.01 5.36 1.02 2.72 0 0 Z " fill="#4131E5" transform="translate(168,130)"/>
<path d="M0 0 C0.33 0 0.66 0 1 0 C1.17942163 3.94727588 1.09350689 6.5980513 -1 10 C-1.66 10 -2.32 10 -3 10 C-2.39009109 6.44219804 -1.4216319 3.3171411 0 0 Z " fill="#4332C8" transform="translate(608,92)"/>
<path d="M0 0 C1.65 0 3.3 0 5 0 C4.67 1.98 4.34 3.96 4 6 C3.34 6 2.68 6 2 6 C1.34 4.02 0.68 2.04 0 0 Z " fill="#4130D8" transform="translate(567,90)"/>
<path d="M0 0 C0.66 0 1.32 0 2 0 C2.99 2.97 3.98 5.94 5 9 C4.01 8.67 3.02 8.34 2 8 C0.5522078 5.10441559 0 3.25811062 0 0 Z " fill="#3F31CB" transform="translate(581,79)"/>
<path d="M0 0 C3.625 -0.1875 3.625 -0.1875 7 0 C6.67 0.66 6.34 1.32 6 2 C3.35139573 2.59355614 0.70802678 2.74209269 -2 3 C-1.34 2.01 -0.68 1.02 0 0 Z " fill="#4130D6" transform="translate(403,85)"/>
<path d="M0 0 C0.66666667 2 1.33333333 4 2 6 C0.68 5.67 -0.64 5.34 -2 5 C-2 5.99 -2 6.98 -2 8 C-2.66 8 -3.32 8 -4 8 C-2.87548273 5.0280615 -1.77706209 2.66559313 0 0 Z " fill="#4232D1" transform="translate(219,63)"/>
<path d="M0 0 C0.33 0.66 0.66 1.32 1 2 C2.98 2 4.96 2 7 2 C4.03312999 3.64826111 1.34373475 4.44271087 -2 5 C-1.34 3.35 -0.68 1.7 0 0 Z " fill="#3F2FCE" transform="translate(299,66)"/>
<path d="M0 0 C2.64 0 5.28 0 8 0 C8.33 1.32 8.66 2.64 9 4 C6.03 3.01 3.06 2.02 0 1 C0 0.67 0 0.34 0 0 Z " fill="#4230D2" transform="translate(272,63)"/>
<path d="M0 0 C2.31 0.66 4.62 1.32 7 2 C7 2.66 7 3.32 7 4 C6.01 4.33 5.02 4.66 4 5 C2.68 3.35 1.36 1.7 0 0 Z " fill="#3E30D6" transform="translate(221,125)"/>
<path d="M0 0 C4.75 1.875 4.75 1.875 7 3 C7 3.66 7 4.32 7 5 C4.03 4.505 4.03 4.505 1 4 C0.67 2.68 0.34 1.36 0 0 Z " fill="#4533D7" transform="translate(681,123)"/>
</svg>
